<svg xmlns="http://www.w3.org/2000/svg" width="29.974" height="29.98" viewBox="0 0 29.974 29.98"><path d="M27.765,27.452l5.168-12.014a.509.509,0,0,0-.045-.483.518.518,0,0,0-.431-.23H29.574a.519.519,0,0,0-.365.15.51.51,0,0,0,0,.725.519.519,0,0,0,.365.15h2.1L26.948,26.74H11.222L8.757,15.751H10.99a.519.519,0,0,0,.365-.15.51.51,0,0,0,0-.725.519.519,0,0,0-.365-.15H8.525L8.168,13.08a.512.512,0,0,0-.186-.292.519.519,0,0,0-.33-.108H3.517a.519.519,0,0,0-.365.15.51.51,0,0,0,0,.725.519.519,0,0,0,.365.15H7.238L11.207,31.4a.512.512,0,0,0,.186.292.52.52,0,0,0,.33.108H27.289a.519.519,0,0,0,.365-.15.51.51,0,0,0,0-.725.519.519,0,0,0-.365-.15H12.127l-.677-3h15.84a.52.52,0,0,0,.285-.085A.514.514,0,0,0,27.765,27.452Z" transform="translate(-3 -7.607)"/><path d="M23,56.576a2.328,2.328,0,1,0-2.328-2.328A2.328,2.328,0,0,0,23,56.576Z" transform="translate(-11.525 -26.601)"/><path d="M41.268,51.93a2.323,2.323,0,1,0,1.632.686,2.328,2.328,0,0,0-1.632-.686Z" transform="translate(-20.33 -26.606)"/><path d="M29.628,17.357a7.179,7.179,0,1,0-5.076-2.1,7.178,7.178,0,0,0,5.076,2.1Zm-3.476-5.81a.513.513,0,0,1,.723,0l2.241,2.22V5.333a.513.513,0,1,1,1.025,0v8.435l2.236-2.241a.513.513,0,0,1,.723.728l-3.112,3.112a.513.513,0,0,1-.728,0L26.152,12.26a.513.513,0,0,1,0-.713Z" transform="translate(-12.325 -3)"/></svg>