<svg xmlns="http://www.w3.org/2000/svg" width="26.121" height="27.416" viewBox="0 0 26.121 27.416"><path d="M26.49,18.5,23.521,7.8a10.644,10.644,0,0,0-20.649.538L.575,18.671a3.426,3.426,0,0,0,3.344,4.168H8.038a5.71,5.71,0,0,0,11.191,0h3.962a3.426,3.426,0,0,0,3.3-4.339ZM13.633,25.123a3.426,3.426,0,0,1-3.216-2.284h6.431a3.426,3.426,0,0,1-3.216,2.284ZM24.1,20.1a1.134,1.134,0,0,1-.914.451H3.919A1.142,1.142,0,0,1,2.8,19.165L5.1,8.831a8.36,8.36,0,0,1,16.215-.425l2.969,10.7a1.134,1.134,0,0,1-.186,1Z" transform="translate(-0.494 0.004)"/></svg>