<svg xmlns="http://www.w3.org/2000/svg" width="29.48" height="25.43" viewBox="0 0 29.48 25.43"><g transform="translate(0.529 0.5)"><path d="M14.295,26.43a.559.559,0,0,1-.262-.057.57.57,0,0,1-.262-.285L.125,8.635a.57.57,0,0,1,0-.7h0l4.765-5.7h0A.57.57,0,0,1,5.22,2h18.4a.57.57,0,0,1,.3.182h0l4.435,5.7h0a.57.57,0,0,1,.1.4h0a.57.57,0,0,1-.125.274L14.648,26.134A.57.57,0,0,1,14.295,26.43ZM9.928,8.84l4.366,14.968L18.649,8.84Zm9.907,0L15.674,23.147,26.766,8.84Zm-18.092,0L12.915,23.147,8.743,8.84ZM20.519,7.7h6.247l-3.26-4.184Zm-10.066,0h7.672l-3.83-4.275Zm-8.664,0H8.1L5.289,3.516ZM15.571,3.14l3.808,4.218,3-4.218Zm-9.12,0L9.233,7.347,13.018,3.14Z" transform="translate(-0.006 -2)" stroke="#000" stroke-width="1"/></g></svg>