<svg xmlns="http://www.w3.org/2000/svg" width="52.351" height="38.849" viewBox="0 0 52.351 38.849"><g transform="translate(1.351 1.007)"><path d="M785.094,1064.614l-24.348-28.657,9.126-9.387,30.456-.55,9.793,9.069-8.177,9.315a1,1,0,0,1-1.5-1.319l6.893-7.852-7.774-7.2-28.828.521-7.284,7.493,21.634,25.462,6.877-8.231a1,1,0,0,1,1.535,1.282Z" transform="translate(-762.097 -1027.027)" fill="rgba(136,136,136,0.6)"/><path d="M782.551,1027.954a3.81,3.81,0,0,1,2.9,1.385,4.971,4.971,0,0,1,1.165,3.162l.143,7.968,6.559-.166h.091a3.811,3.811,0,0,1,2.9,1.386,5.139,5.139,0,0,1,.09,6.405,3.836,3.836,0,0,1-2.9,1.492l-6.548.166.144,7.972a5.027,5.027,0,0,1-1.074,3.247,3.847,3.847,0,0,1-2.9,1.5h-.086a3.817,3.817,0,0,1-2.905-1.384,4.98,4.98,0,0,1-1.171-3.161l-.143-7.971-6.577.164h-.091a3.81,3.81,0,0,1-2.9-1.385,4.971,4.971,0,0,1-1.166-3.163,4.421,4.421,0,0,1,3.979-4.736l6.566-.164-.143-7.983a5.01,5.01,0,0,1,1.075-3.244,3.837,3.837,0,0,1,2.9-1.492Zm2.248,14.566-.18-9.983a2.408,2.408,0,0,0-2.068-2.583h-.041a2.44,2.44,0,0,0-2.029,2.7l.179,9.969-8.551.214a1.872,1.872,0,0,0-1.4.751,3.011,3.011,0,0,0-.632,1.951,2.409,2.409,0,0,0,2.068,2.583h.041l8.59-.214.18,9.983a2.416,2.416,0,0,0,2.077,2.583h.033a2.455,2.455,0,0,0,2.03-2.712l-.179-9.957,8.533-.217a2.44,2.44,0,0,0,2.03-2.7,2.409,2.409,0,0,0-2.069-2.583h-.041Z" transform="translate(-746.481 -1024.63)" fill="rgba(136,136,136,0.6)"/></g></svg>