<?xml version="1.0" encoding="UTF-8" standalone="no"?> <svg width="64" height="64" viewBox="0 0 64 64" fill="none" xmlns="http://www.w3.org/2000/svg">
<path d="M51.6799 23.3499C51.5128 22.995 51.2132 22.7196 50.8455 22.5829C50.4777 22.4461 50.071 22.4589 49.7126 22.6185C49.3542 22.7781 49.0726 23.0718 48.9281 23.4366C48.7837 23.8014 48.7879 24.2082 48.9399 24.5699C54.4199 36.3799 45.0599 50.7799 31.9999 50.4999C27.095 50.4946 22.3925 48.5438 18.9243 45.0756C15.456 41.6073 13.5052 36.9048 13.4999 31.9999C13.2199 18.9399 27.6199 9.57994 39.4299 15.0599C39.611 15.1417 39.8066 15.187 40.0053 15.193C40.204 15.1991 40.4019 15.1659 40.5877 15.0953C40.7735 15.0247 40.9436 14.9181 41.0881 14.7816C41.2326 14.6451 41.3488 14.4814 41.4299 14.2999C41.5145 14.1192 41.5619 13.9233 41.5693 13.7239C41.5768 13.5245 41.5441 13.3256 41.4732 13.1391C41.4023 12.9525 41.2947 12.7821 41.1567 12.638C41.0187 12.4938 40.8531 12.3789 40.6699 12.2999C26.9199 5.93993 10.1799 16.8099 10.4999 31.9999C10.5078 37.6997 12.7755 43.1637 16.8058 47.194C20.8362 51.2243 26.3002 53.492 31.9999 53.4999C47.1799 53.8199 58.0599 37.0799 51.6799 23.3499Z" fill="url(#paint0_linear_121:1812)"/>
<path d="M27.7398 24.3899C27.5335 24.0665 27.2112 23.8344 26.839 23.7413C26.4669 23.6482 26.0732 23.7013 25.739 23.8895C25.4048 24.0778 25.1553 24.3869 25.042 24.7534C24.9287 25.1199 24.9601 25.5158 25.1298 25.8599L30.6898 35.7399C30.8099 35.9471 30.9776 36.1228 31.1791 36.2524C31.3805 36.382 31.6099 36.4618 31.8483 36.4852C32.0866 36.5087 32.3272 36.4751 32.55 36.3872C32.7728 36.2993 32.9716 36.1597 33.1298 35.9799L53.1298 12.9799C53.395 12.6802 53.5303 12.2874 53.5059 11.888C53.4815 11.4885 53.2995 11.1151 52.9998 10.8499C52.7001 10.5847 52.3073 10.4494 51.9079 10.4738C51.5084 10.4981 51.135 10.6802 50.8698 10.9799L32.2598 32.4099L27.7398 24.3899Z" fill="url(#paint1_linear_121:1812)"/>
<defs>
<linearGradient id="paint0_linear_121:1812" x1="10.4999" y1="31.9799" x2="53.5399" y2="31.9799" gradientUnits="userSpaceOnUse">
<stop stop-color="#19DD33"/>
<stop offset="0.43" stop-color="#0FA922"/>
<stop offset="0.8" stop-color="#088215"/>
<stop offset="1" stop-color="#057310"/>
</linearGradient>
<linearGradient id="paint1_linear_121:1812" x1="736.318" y1="621.977" x2="1551.52" y2="621.977" gradientUnits="userSpaceOnUse">
<stop stop-color="#19DD33"/>
<stop offset="0.43" stop-color="#0FA922"/>
<stop offset="0.8" stop-color="#088215"/>
<stop offset="1" stop-color="#057310"/>
</linearGradient>
</defs>
</svg>
