<?xml version="1.0" encoding="UTF-8" standalone="no"?> <svg width="64" height="64" viewBox="0 0 64 64" fill="none" xmlns="http://www.w3.org/2000/svg">
<path d="M50.92 41.49L60.92 18.06C60.9844 17.908 61.0101 17.7424 60.995 17.5781C60.9798 17.4137 60.9242 17.2557 60.8331 17.1181C60.742 16.9804 60.6182 16.8675 60.4729 16.7893C60.3275 16.7111 60.1651 16.6701 60 16.67H54.42C54.1548 16.67 53.9004 16.7753 53.7129 16.9629C53.5254 17.1504 53.42 17.4048 53.42 17.67C53.42 17.9352 53.5254 18.1896 53.7129 18.3771C53.9004 18.5646 54.1548 18.67 54.42 18.67H58.49L49.34 40.1H18.91L14.14 18.67H18.46C18.7252 18.67 18.9796 18.5646 19.1671 18.3771C19.3546 18.1896 19.46 17.9352 19.46 17.67C19.46 17.4048 19.3546 17.1504 19.1671 16.9629C18.9796 16.7753 18.7252 16.67 18.46 16.67H13.69L13 13.46C12.9492 13.2344 12.8218 13.0334 12.6395 12.8912C12.4571 12.749 12.2312 12.6743 12 12.68H4C3.73478 12.68 3.48043 12.7853 3.29289 12.9729C3.10536 13.1604 3 13.4148 3 13.68C3 13.9452 3.10536 14.1996 3.29289 14.3871C3.48043 14.5746 3.73478 14.68 4 14.68H11.2L18.88 49.18C18.9308 49.4056 19.0582 49.6066 19.2405 49.7488C19.4229 49.891 19.6488 49.9656 19.88 49.96H50C50.2652 49.96 50.5196 49.8546 50.7071 49.6671C50.8946 49.4796 51 49.2252 51 48.96C51 48.6948 50.8946 48.4404 50.7071 48.2529C50.5196 48.0653 50.2652 47.96 50 47.96H20.66L19.35 42.1H50C50.1963 42.0998 50.3882 42.0419 50.5518 41.9334C50.7154 41.825 50.8434 41.6707 50.92 41.49Z" fill="black"/>
<path d="M25.2099 61C27.7173 61 29.7499 58.9674 29.7499 56.46C29.7499 53.9526 27.7173 51.92 25.2099 51.92C22.7025 51.92 20.6699 53.9526 20.6699 56.46C20.6699 58.9674 22.7025 61 25.2099 61Z" fill="black"/>
<path d="M43.4999 51.93C42.5999 51.9221 41.7178 52.1818 40.9658 52.6763C40.2137 53.1707 39.6256 53.8776 39.2761 54.707C38.9267 55.5364 38.8316 56.451 39.0031 57.3346C39.1745 58.2182 39.6047 59.0309 40.239 59.6694C40.8733 60.3079 41.6831 60.7435 42.5655 60.9208C43.4479 61.0982 44.3631 61.0092 45.1949 60.6652C46.0266 60.3213 46.7373 59.7379 47.2368 58.9891C47.7362 58.2403 48.0019 57.36 47.9999 56.46C47.9999 55.2637 47.5268 54.116 46.6837 53.2673C45.8407 52.4187 44.6961 51.9379 43.4999 51.93V51.93Z" fill="black"/>
<path d="M36.45 31C39.2189 31 41.9256 30.1789 44.2279 28.6406C46.5302 27.1022 48.3246 24.9157 49.3843 22.3576C50.4439 19.7994 50.7211 16.9845 50.1809 14.2687C49.6407 11.553 48.3074 9.05845 46.3494 7.10051C44.3915 5.14258 41.8969 3.80921 39.1812 3.26901C36.4655 2.72882 33.6505 3.00607 31.0924 4.06569C28.5342 5.12532 26.3477 6.91973 24.8094 9.22202C23.271 11.5243 22.45 14.2311 22.45 17C22.45 20.713 23.9249 24.274 26.5505 26.8995C29.176 29.525 32.7369 31 36.45 31V31ZM29.67 19.67C29.8573 19.4838 30.1108 19.3792 30.375 19.3792C30.6391 19.3792 30.8926 19.4838 31.08 19.67L35.45 24V7.55001C35.45 7.28479 35.5553 7.03044 35.7428 6.8429C35.9304 6.65536 36.1847 6.55001 36.45 6.55001C36.7152 6.55001 36.9695 6.65536 37.1571 6.8429C37.3446 7.03044 37.45 7.28479 37.45 7.55001V24L41.81 19.63C41.9983 19.443 42.2531 19.3385 42.5185 19.3394C42.7838 19.3404 43.038 19.4467 43.2249 19.635C43.4119 19.8233 43.5164 20.0782 43.5155 20.3435C43.5146 20.6089 43.4083 20.863 43.22 21.05L37.15 27.12C37.057 27.2137 36.9464 27.2881 36.8245 27.3389C36.7027 27.3897 36.572 27.4158 36.4399 27.4158C36.3079 27.4158 36.1772 27.3897 36.0554 27.3389C35.9335 27.2881 35.8229 27.2137 35.7299 27.12L29.67 21.06C29.4897 20.8735 29.389 20.6243 29.389 20.365C29.389 20.1057 29.4897 19.8565 29.67 19.67V19.67Z" fill="black"/>
</svg>
