<?xml version="1.0" standalone="no"?>
<!DOCTYPE svg PUBLIC "-//W3C//DTD SVG 1.1//EN" "http://www.w3.org/Graphics/SVG/1.1/DTD/svg11.dtd" >
<svg xmlns="http://www.w3.org/2000/svg">
<metadata>Generated by IcoMoon</metadata>
<defs>
<font id="icons" horiz-adv-x="1024">
<font-face units-per-em="1024" ascent="960" descent="-64" />
<missing-glyph horiz-adv-x="1024" />
<glyph unicode="&#x20;" horiz-adv-x="512" d="" />
<glyph unicode="&#xe900;" glyph-name="notification" d="M204.8 563.2c0 0.040 0 0.087 0 0.135 0 133.528 85.193 247.159 204.189 289.503l2.147 0.666c-0.815 4.852-1.28 10.442-1.28 16.14 0 56.554 45.846 102.4 102.4 102.4s102.4-45.846 102.4-102.4c0-5.699-0.465-11.288-1.361-16.734l0.081 0.593c120.875-43.156 205.824-156.653 205.824-289.991 0-0.11 0-0.22 0-0.33v0.017-307.2l153.6-102.4v-51.2h-921.6v51.2l153.6 102.4v307.2zM614.4 51.2c0-56.554-45.846-102.4-102.4-102.4s-102.4 45.846-102.4 102.4v0h204.8z" />
<glyph unicode="&#xe901;" glyph-name="notifications" d="M204.8 563.2c0 0.040 0 0.087 0 0.135 0 133.528 85.193 247.159 204.189 289.503l2.147 0.666c-0.815 4.852-1.28 10.442-1.28 16.14 0 56.554 45.846 102.4 102.4 102.4s102.4-45.846 102.4-102.4c0-5.699-0.465-11.288-1.361-16.734l0.081 0.593c120.875-43.156 205.824-156.653 205.824-289.991 0-0.11 0-0.22 0-0.33v0.017-307.2l153.6-102.4v-51.2h-921.6v51.2l153.6 102.4v307.2zM614.4 51.2c0-56.554-45.846-102.4-102.4-102.4s-102.4 45.846-102.4 102.4v0h204.8z" />
<glyph unicode="&#xe902;" glyph-name="search" d="M660.48 239.616c-68.622-53.712-156.164-86.131-251.277-86.131-226.216 0-409.6 183.384-409.6 409.6s183.384 409.6 409.6 409.6c226.216 0 409.6-183.384 409.6-409.6 0-95.113-32.419-182.654-86.809-252.177l0.678 0.9 273.92-272.896-72.704-72.704-272.896 273.408zM409.6 256c169.662 0 307.2 137.538 307.2 307.2s-137.538 307.2-307.2 307.2v0c-169.662 0-307.2-137.538-307.2-307.2s137.538-307.2 307.2-307.2v0z" />
<glyph unicode="&#xe903;" glyph-name="user-2" horiz-adv-x="993" d="M992.954-64v124.137c0 137.092-111.135 248.227-248.227 248.227v0h-496.5c-137.092 0-248.227-111.135-248.227-248.227v0-124.137zM713.681 727.273c0-128.532-104.196-232.727-232.727-232.727s-232.727 104.196-232.727 232.727c0 128.532 104.196 232.727 232.727 232.727s232.727-104.196 232.727-232.727z" />
<glyph unicode="&#xe904;" glyph-name="Layer-2-1" horiz-adv-x="970" d="M969.881 731.763c-5.562 77.687-69.953 138.606-148.572 138.606-19.309 0-37.76-3.675-54.691-10.363l1.009 0.351c-15.613-6.385-33.731-10.091-52.715-10.091-22.673 0-44.112 5.286-63.151 14.694l0.835-0.373c-28.020 14.21-60.613 26.146-94.722 34.142l-2.999 0.592c-18.642 4.171-34.078 15.529-43.549 30.945l-0.169 0.296c-10.602 17.74-29.706 29.434-51.542 29.434-21.293 0-39.988-11.12-50.595-27.87l-0.145-0.245c-9.854-15.39-25.318-26.452-43.443-30.345l-0.45-0.081c-68.921-14.789-129.456-43.729-180.939-83.761l1 0.748c-12.233-9.697-27.893-15.557-44.92-15.557-4.756 0-9.405 0.457-13.906 1.33l0.457-0.074c-5.162 1.101-11.094 1.732-17.172 1.732-47.486 0-85.982-38.495-85.982-85.982 0-14.836 3.757-28.794 10.372-40.975l-0.225 0.453c5.593-9.998 8.886-21.939 8.886-34.648 0-8.839-1.593-17.307-4.508-25.131l0.162 0.498c-17.585-46.045-27.769-99.299-27.769-154.932 0-43.012 6.087-84.603 17.448-123.957l-0.778 3.15c1.865-6.008 2.94-12.916 2.94-20.075 0-15.12-4.793-29.121-12.943-40.565l0.145 0.215c-10.779-14.667-17.25-33.083-17.25-53.010 0-49.748 40.328-90.076 90.076-90.076 5.991 0 11.846 0.585 17.511 1.701l-0.571-0.094c3.997 0.797 8.593 1.253 13.296 1.253 17.642 0 33.785-6.42 46.219-17.052l-0.098 0.081c40.868-35.139 88.951-63.284 141.558-81.839l3.123-0.96c19.199-6.493 34.442-20.307 42.68-38.035l0.185-0.444c18.186-41.202 58.683-69.439 105.775-69.439 47.315 0 87.972 28.504 105.737 69.277l0.289 0.744c7.764 18.557 22.475 32.909 40.799 40.018l0.494 0.169c45.158 16.6 84.234 38.375 119.212 65.223l-1.058-0.78c11.621 8.747 26.298 14.009 42.203 14.009 5.113 0 10.099-0.544 14.903-1.576l-0.464 0.084c6.754-1.38 14.517-2.17 22.465-2.17 4.493 0 8.928 0.252 13.29 0.744l-0.535-0.049c57.989 6.591 102.628 55.375 102.628 114.586 0 24.43-7.599 47.086-20.563 65.731l0.249-0.378c-8.048 11.3-12.867 25.386-12.867 40.597 0 5.712 0.68 11.266 1.962 16.585l-0.098-0.481c8.223 32.114 12.942 68.982 12.942 106.951 0 27.196-2.421 53.826-7.060 79.686l0.405-2.721c-0.756 3.872-1.188 8.325-1.188 12.879 0 21.152 9.331 40.124 24.1 53.025l0.083 0.071c32.254 27.432 52.581 68.048 52.581 113.412 0 3.553-0.125 7.077-0.37 10.568l0.026-0.47zM880.076 465.202c-0.010-17.421-1.060-34.585-3.092-51.447l0.2 2.043c-4.037-35.997-34.304-63.725-71.047-63.725-0.011 0-0.023 0-0.034 0h-6.188c-61.931-2.209-111.298-52.946-111.298-115.214 0-17.556 3.924-34.196 10.944-49.089l-0.298 0.703c3.91-8.439 6.19-18.315 6.19-28.725 0-25.504-13.69-47.811-34.123-59.972l-0.321-0.177c-7.18-4.25-14.573-8.325-22.063-12.147-9.161-4.666-19.98-7.4-31.436-7.4-25.172 0-47.263 13.197-59.729 33.050l-0.172 0.294c-20.722 32.687-56.708 54.069-97.688 54.069-41.955 0-78.676-22.412-98.842-55.917l-0.29-0.52c-12.626-20.4-34.88-33.786-60.261-33.786-11.619 0-22.582 2.805-32.25 7.776l0.397-0.185c-26.026 12.894-48.354 26.835-69.164 42.669l1.034-0.755c-17.001 13.087-27.848 33.444-27.848 56.335 0 7.772 1.251 15.252 3.561 22.25l-0.143-0.501c2.577 7.997 4.062 17.197 4.062 26.744 0 42.524-29.466 78.165-69.095 87.62l-0.613 0.123c-3.144 0.737-6.287 1.261-9.372 1.669-29.21 3.2-52.727 24.273-59.532 51.92l-0.098 0.472c-6.305 27.451-9.918 58.973-9.918 91.34 0 42.557 6.247 83.655 17.874 122.426l-0.776-3.013c8.964 28.353 34.593 48.73 65.124 49.731l0.114 0.003c3.612 0.194 6.949 0.568 10.224 1.121l-0.522-0.073c41.16 6.929 72.128 42.302 72.128 84.908 0 8.102-1.12 15.942-3.213 23.374l0.146-0.606c-1.386 5.232-2.183 11.238-2.183 17.43 0 24.934 12.909 46.853 32.408 59.438l0.278 0.168c36.574 24.429 79.061 43.785 124.55 55.734l2.938 0.656c5.318 1.477 11.424 2.325 17.728 2.325 18.986 0 36.174-7.696 48.616-20.138v0c10.855-11.147 26.009-18.061 42.777-18.061 16.199 0 30.891 6.453 41.646 16.929l-0.013-0.013c12.574 12.144 29.718 19.626 48.61 19.626 6.664 0 13.111-0.931 19.218-2.67l-0.494 0.12c28.299-7.942 52.656-17.477 75.793-29.083l-2.424 1.102c23.261-11.82 38.922-35.572 38.922-62.982 0-7.234-1.091-14.213-3.117-20.782l0.132 0.499c-3.667-12.303-5.777-26.439-5.777-41.069 0-78.127 60.182-142.198 136.715-148.383l0.528-0.034h1.514c34.594-2.090 62.376-28.678 66.313-62.54l0.031-0.331c1.603-13.533 2.553-29.28 2.619-45.237v-0.092z" />
<glyph unicode="&#xe905;" glyph-name="Layer-2" horiz-adv-x="675" d="M182.017 833.724c0.432 2.699 0.945 4.967 1.539 7.302s1.282 4.643 1.971 6.937c1.498 4.535 3.172 8.989 5.115 13.335 0.858 1.918 2.749 3.23 4.947 3.23 2.984 0 5.403-2.419 5.403-5.403 0-0.786-0.168-1.533-0.47-2.207l0.014 0.034c-1.755-4.049-3.293-8.098-4.643-12.309-0.621-2.079-1.242-4.171-1.755-6.289s-0.985-4.305-1.242-6.060v-0.148c-0.397-2.702-2.699-4.753-5.48-4.753-3.057 0-5.535 2.478-5.535 5.535 0 0.276 0.020 0.548 0.059 0.813l-0.004-0.030zM204.625 886.105c5.701 8.015 11.785 15.049 18.467 21.466l0.050 0.048c0.965 1.047 2.343 1.7 3.874 1.7 2.907 0 5.264-2.357 5.264-5.264 0-1.595-0.709-3.024-1.829-3.989l-0.007-0.006c-6.203-6.036-11.822-12.607-16.806-19.658l-0.294-0.439c-0.981-1.003-2.348-1.625-3.861-1.625-2.982 0-5.399 2.417-5.399 5.399 0 0.846 0.195 1.646 0.541 2.359l-0.014-0.032zM245.371 925.34c7.034 4.726 15.143 9.295 23.607 13.232l1.119 0.467c0.679 0.354 1.482 0.562 2.334 0.562 2.833 0 5.129-2.296 5.129-5.129 0-2.131-1.3-3.959-3.151-4.733l-0.034-0.013c-8.987-4.184-16.594-8.517-23.81-13.385l0.609 0.387c-0.814-0.555-1.819-0.885-2.902-0.885-2.871 0-5.198 2.327-5.198 5.198 0 1.788 0.903 3.365 2.278 4.301l0.018 0.012zM296.47 949.054c7.196 2.227 16.376 4.42 25.735 6.092l1.515 0.224c0.27 0.051 0.58 0.080 0.898 0.080 2.799 0 5.067-2.269 5.067-5.067 0-2.481-1.783-4.546-4.138-4.982l-0.031-0.005c-10.418-1.905-19.203-4.094-27.778-6.762l1.661 0.445c-0.475-0.164-1.023-0.258-1.593-0.258-2.788 0-5.048 2.26-5.048 5.048 0 2.303 1.542 4.245 3.649 4.852l0.036 0.009zM351.402 958.974l13.956 0.85c1.139 0.114 2.462 0.179 3.799 0.179s2.66-0.065 3.965-0.192l-0.166 0.013c2.887-0.322 5.519-0.94 8.021-1.831l-0.247 0.077c1.908-0.677 3.25-2.466 3.25-4.569 0-2.671-2.165-4.836-4.836-4.836-0.568 0-1.113 0.098-1.62 0.278l0.034-0.010c-1.629 0.579-3.525 1.004-5.489 1.194l-0.099 0.008c-0.921 0.095-1.989 0.149-3.071 0.149s-2.15-0.054-3.203-0.16l-13.458-1.082h-0.216c-0.146-0.015-0.316-0.024-0.488-0.024-2.751 0-4.98 2.23-4.98 4.98 0 2.69 2.132 4.881 4.798 4.977h0.009zM402.285 936.111c0.761-2.268 1.316-4.91 1.556-7.641l0.009-0.133c0.036-0.605 0.057-1.312 0.057-2.025s-0.021-1.42-0.061-2.122l0.005 0.097c0.017-0.294 0.027-0.639 0.027-0.985s-0.010-0.691-0.029-1.033l0.002 0.047v-1.674l-1.134-13.699c-0.205-2.447-2.242-4.355-4.724-4.355-2.618 0-4.74 2.122-4.74 4.74 0 0.135 0.006 0.269 0.017 0.402l-0.001-0.017 1.053 13.659v6.114c-0.207 2.085-0.622 3.994-1.228 5.816l0.054-0.187c-0.257 0.568-0.407 1.233-0.407 1.931 0 2.646 2.145 4.791 4.791 4.791 2.269 0 4.169-1.577 4.665-3.694l0.006-0.032zM413.824 891.99l27.061-6.465c1.977-0.529 3.41-2.304 3.41-4.414 0-2.519-2.042-4.562-4.562-4.562-0.328 0-0.648 0.035-0.956 0.1l0.030-0.005h-0.364l-26.454 6.168h-0.324c-2.063 0.497-3.571 2.326-3.571 4.508 0 2.557 2.073 4.631 4.631 4.631 0.376 0 0.741-0.045 1.091-0.129l-0.032 0.006zM467.339 876.684c10.134-3.952 18.554-7.965 26.645-12.494l-1.069 0.55c1.364-0.779 2.269-2.224 2.269-3.881 0-0.79-0.206-1.531-0.566-2.175l0.012 0.022c-0.765-1.349-2.192-2.245-3.828-2.245-0.796 0-1.542 0.212-2.186 0.583l0.021-0.011c-6.763 3.769-14.886 7.564-23.28 10.814l-1.378 0.469c-1.582 0.719-2.662 2.285-2.662 4.104 0 2.482 2.012 4.494 4.494 4.494 0.508 0 0.996-0.084 1.452-0.24l-0.032 0.009zM516.17 848.922c7.371-6.1 13.871-12.797 19.586-20.135l0.214-0.285c0.731-0.766 1.18-1.806 1.18-2.95 0-2.363-1.916-4.278-4.278-4.278-1.537 0-2.885 0.811-3.639 2.028l-0.011 0.018c-5.535 7.057-11.614 13.255-18.308 18.729l-0.21 0.166c-0.984 0.803-1.607 2.016-1.607 3.374 0 2.4 1.946 4.346 4.346 4.346 1.042 0 1.999-0.367 2.748-0.978l-0.008 0.006zM550.155 803.883c3.36-7.915 5.998-17.137 7.475-26.741l0.083-0.658c0.011-0.114 0.018-0.247 0.018-0.381 0-2.288-1.855-4.144-4.144-4.144-1.983 0-3.641 1.394-4.048 3.255l-0.005 0.027c-1.486 9.516-3.97 18.056-7.395 26.099l0.269-0.711c-0.245 0.518-0.388 1.125-0.388 1.765 0 2.326 1.885 4.211 4.211 4.211 1.776 0 3.295-1.099 3.914-2.654l0.010-0.028zM558.955 748.141c-0.58-10.225-1.884-19.755-3.878-29.028l0.221 1.224c-0.4-1.849-2.021-3.214-3.962-3.214-0.265 0-0.523 0.025-0.774 0.074l0.025-0.004c-1.849 0.4-3.214 2.021-3.214 3.962 0 0.265 0.025 0.523 0.074 0.774l-0.004-0.025c1.66 7.722 2.86 16.844 3.343 26.155l0.018 0.433c0.1 2.159 1.875 3.871 4.049 3.871 2.238 0 4.053-1.815 4.053-4.053 0-0.064-0.001-0.128-0.004-0.191v0.009zM547.996 693.358c-2.915-8.84-6.249-17.465-9.934-25.968-0.533-1.403-1.866-2.383-3.428-2.383-0.585 0-1.137 0.137-1.627 0.381l0.021-0.010c-1.39 0.609-2.344 1.972-2.344 3.559 0 0.532 0.107 1.039 0.302 1.501l-0.010-0.025c3.014 6.619 6.248 15.094 9.029 23.772l0.5 1.804c0.22 1.987 1.89 3.519 3.918 3.519 2.177 0 3.941-1.764 3.941-3.941 0-0.746-0.207-1.444-0.568-2.039l0.010 0.018zM526.293 642.529l-13.497-24.186c-0.65-1.134-1.854-1.885-3.232-1.885-2.051 0-3.714 1.663-3.714 3.714 0 0.672 0.179 1.303 0.491 1.847l-0.010-0.018v0.216l13.294 23.633c0.65 1.197 1.898 1.996 3.332 1.996 2.087 0 3.779-1.692 3.779-3.779 0-0.689-0.185-1.336-0.507-1.892l0.010 0.018zM497.882 595.047l-16.075-22.499c-0.654-0.62-1.54-1.002-2.515-1.002-2.020 0-3.658 1.638-3.658 3.658 0 0.549 0.121 1.070 0.338 1.537l-0.009-0.023 15.737 22.243c0.675 0.785 1.669 1.28 2.779 1.28 2.020 0 3.658-1.638 3.658-3.658 0-0.67-0.18-1.297-0.494-1.837l0.009 0.017zM470.997 551.318c0.605-3.777 2.634-6.992 5.51-9.138l0.037-0.027c1.551-1.052 3.344-1.913 5.26-2.488l0.139-0.036 6.316-2.308c1.427-0.441 2.446-1.749 2.446-3.294 0-1.901-1.541-3.442-3.442-3.442-0.484 0-0.944 0.1-1.361 0.28l0.022-0.009-6.573 2.375c-2.658 0.795-4.975 1.927-7.059 3.373l0.081-0.053c-4.402 3.216-7.485 8.010-8.418 13.535l-0.017 0.124c-0.233 0.468-0.369 1.019-0.369 1.602 0 2.020 1.638 3.658 3.658 3.658s3.658-1.638 3.658-3.658c0-0.179-0.013-0.356-0.038-0.528l0.002 0.020zM514.308 528.535c10.084-3.665 18.519-7.494 26.611-11.877l-1.035 0.513c1.139-0.538 1.913-1.678 1.913-2.999 0-1.826-1.48-3.307-3.307-3.307-0.649 0-1.254 0.187-1.765 0.51l0.014-0.008c-6.841 3.777-14.975 7.471-23.402 10.557l-1.256 0.402c-1.272 0.498-2.157 1.715-2.157 3.138 0 1.856 1.505 3.361 3.361 3.361 0.39 0 0.765-0.067 1.114-0.189l-0.024 0.007zM563.004 501.245c7.090-6.149 13.336-12.952 18.75-20.398l0.24-0.347c0.385-0.511 0.617-1.157 0.617-1.857 0-1.040-0.511-1.96-1.296-2.523l-0.009-0.006c-0.512-0.375-1.153-0.6-1.848-0.6-1.039 0-1.96 0.504-2.532 1.28l-0.006 0.009c-5.438 7.334-11.441 13.744-18.098 19.408l-0.163 0.135c-0.694 0.594-1.132 1.471-1.132 2.45 0 1.777 1.44 3.217 3.217 3.217 0.798 0 1.528-0.29 2.090-0.771l-0.004 0.004zM595.963 456.125c3.36-7.342 6.484-16.119 8.873-25.193l0.264-1.18c0.034-0.169 0.053-0.363 0.053-0.561 0-1.662-1.348-3.010-3.010-3.010-1.312 0-2.428 0.84-2.84 2.011l-0.006 0.021c-2.592 9.935-5.651 18.444-9.363 26.592l0.415-1.016c-0.261 0.445-0.414 0.979-0.414 1.55 0 1.714 1.39 3.104 3.104 3.104 1.356 0 2.509-0.869 2.932-2.081l0.007-0.022zM610.351 402.435l1.431-13.807c0.187-2.318 0.55-4.449 1.083-6.511l-0.058 0.262c0.607-2.24 1.367-4.182 2.307-6.016l-0.080 0.172c0.196-0.377 0.312-0.823 0.312-1.296 0-1.573-1.276-2.849-2.849-2.849-1.101 0-2.055 0.624-2.53 1.538l-0.007 0.016c-1.046 1.976-1.966 4.28-2.64 6.687l-0.060 0.25c-0.594 2.119-1.034 4.608-1.233 7.165l-0.009 0.137-1.458 13.497c0 0.010 0 0.022 0 0.034 0 1.632 1.323 2.956 2.956 2.956 1.41 0 2.59-0.988 2.885-2.309l0.004-0.020zM634.267 359.556c7.678-5.698 14.086-12.61 19.063-20.514l0.183-0.311c0.267-0.415 0.426-0.921 0.426-1.464 0-1.506-1.221-2.728-2.728-2.728-0.963 0-1.809 0.499-2.295 1.252l-0.007 0.011c-4.795 7.578-10.755 13.946-17.704 19.044l-0.193 0.135c-0.71 0.524-1.165 1.358-1.165 2.297 0 0.605 0.188 1.165 0.51 1.626l-0.006-0.009c0.515 0.718 1.348 1.18 2.288 1.18 0.61 0 1.174-0.194 1.635-0.525l-0.008 0.006zM665.445 313.451c2.639-7.6 4.927-16.716 6.443-26.090l0.13-0.971c0.044-0.179 0.070-0.384 0.070-0.595 0-1.424-1.154-2.578-2.578-2.578-1.339 0-2.439 1.020-2.566 2.326l-0.001 0.011c-1.657 10.030-3.928 18.847-6.879 27.345l0.347-1.148c-0.203 0.37-0.322 0.81-0.322 1.279 0 1.491 1.209 2.699 2.699 2.699 1.323 0 2.423-0.951 2.655-2.207l0.003-0.017zM674.677 258.667c0.101-2.759 0.159-6.001 0.159-9.256 0-6.484-0.229-12.914-0.68-19.282l0.049 0.856c-0.182-1.185-1.194-2.083-2.416-2.083-1.336 0-2.422 1.073-2.443 2.405v0.002c0.334 5.024 0.524 10.891 0.524 16.802 0 3.65-0.072 7.284-0.216 10.899l0.016-0.519c-0.020 0.12-0.032 0.258-0.032 0.399 0 1.394 1.13 2.524 2.524 2.524s2.524-1.13 2.524-2.524c0-0.074-0.003-0.147-0.009-0.219l0.001 0.009zM671.086 203.506l-5.547-27.102c-0.309-0.935-1.175-1.597-2.196-1.597-1.275 0-2.308 1.033-2.308 2.308 0 0.073 0.003 0.145 0.010 0.216l-0.001-0.009v0.189l5.291 26.737v0.189c0.244 1.096 1.208 1.904 2.361 1.904 0.158 0 0.312-0.015 0.461-0.044l-0.015 0.002c1.095-0.227 1.906-1.183 1.906-2.329 0-0.16-0.016-0.316-0.046-0.467l0.003 0.015zM657.792 149.883l-9.866-25.792c-0.319-0.823-1.105-1.396-2.025-1.396-1.196 0-2.166 0.97-2.166 2.166 0 0.277 0.052 0.541 0.146 0.784l-0.005-0.015 9.65 25.576c0.326 0.851 1.136 1.445 2.085 1.445 1.23 0 2.227-0.997 2.227-2.227 0-0.281-0.052-0.55-0.147-0.798l0.005 0.015zM635.995 99.176l-13.956-23.822c-0.353-0.61-1.003-1.015-1.747-1.015-0.382 0-0.738 0.106-1.042 0.291l0.009-0.005c-0.581 0.35-0.964 0.977-0.964 1.694 0 0.371 0.102 0.718 0.281 1.014l-0.005-0.009 13.659 23.592c0.357 0.636 1.027 1.060 1.796 1.060 0.388 0 0.752-0.108 1.061-0.295l-0.009 0.005c0.614-0.369 1.019-1.031 1.019-1.788 0-0.391-0.108-0.757-0.296-1.069l0.005 0.009zM606.072 52.788q-8.435-10.959-17.856-21.041c-0.328-0.276-0.755-0.444-1.221-0.444-1.051 0-1.903 0.852-1.903 1.903 0 0.409 0.129 0.787 0.348 1.098l-0.004-0.006q9.245 10.015 17.546 20.893c0.364 0.439 0.909 0.716 1.52 0.716 0.445 0 0.855-0.147 1.185-0.396l-0.005 0.004c0.447-0.357 0.732-0.902 0.732-1.513 0-0.449-0.153-0.863-0.411-1.191l0.003 0.004zM568.484 12.459q-10.298-9.205-21.446-17.384c-0.318-0.32-0.758-0.518-1.245-0.518-0.969 0-1.755 0.786-1.755 1.755 0 0.664 0.368 1.241 0.912 1.539l0.009 0.005q10.959 8.098 21.109 17.276c0.319 0.286 0.743 0.462 1.208 0.462 1 0 1.811-0.811 1.811-1.811 0-0.535-0.232-1.017-0.602-1.348l-0.002-0.001zM524.026-20.203c-7.896-4.71-16.034-9.056-24.294-13.011-0.172-0.070-0.372-0.111-0.581-0.111-0.872 0-1.579 0.707-1.579 1.579 0 0.59 0.324 1.104 0.803 1.376l0.008 0.004q12.35 5.912 23.997 12.997c0.246 0.149 0.544 0.237 0.862 0.237 0.61 0 1.145-0.324 1.441-0.81l0.004-0.007c0.147-0.242 0.234-0.534 0.234-0.847 0-0.603-0.324-1.13-0.807-1.417l-0.008-0.004zM474.25-43.863l-26.265-8.328c-0.072-0.013-0.155-0.020-0.24-0.020-0.798 0-1.444 0.647-1.444 1.444 0 0.55 0.307 1.027 0.759 1.272l0.008 0.004 26.008 8.395c0.14 0.046 0.301 0.073 0.468 0.073 0.678 0 1.254-0.439 1.459-1.047l0.003-0.011c0.048-0.14 0.076-0.302 0.076-0.47 0-0.671-0.442-1.24-1.050-1.43l-0.011-0.003zM421.059-58.223l-27.29-3.833c-0.151-0.063-0.326-0.1-0.51-0.1-0.745 0-1.35 0.604-1.35 1.35s0.604 1.35 1.35 1.35c0.051 0 0.102-0.003 0.152-0.008l-0.006 0.001 26.994 3.941c0.061 0.010 0.131 0.015 0.202 0.015 0.754 0 1.365-0.611 1.365-1.365 0-0.682-0.501-1.248-1.155-1.349l-0.008-0.001zM366.302-63.852h-27.533c-0.592 0.066-1.049 0.563-1.049 1.167s0.456 1.102 1.043 1.167h27.552c0.686 0 1.242-0.556 1.242-1.242s-0.556-1.242-1.242-1.242v0zM311.33-61.841l-27.317 3.428c-0.513 0.066-0.906 0.5-0.906 1.026 0 0.571 0.463 1.034 1.034 1.034 0.045 0 0.090-0.003 0.133-0.009l-0.005 0.001 27.182-3.293c0.498-0.115 0.864-0.555 0.864-1.080 0-0.611-0.496-1.107-1.107-1.107-0.005 0-0.010 0-0.015 0h0.001zM256.938-53.553l-26.737 6.141c-0.397 0.107-0.685 0.464-0.685 0.888 0 0.073 0.008 0.144 0.025 0.212l-0.001-0.006c0.091 0.394 0.44 0.684 0.856 0.684 0.070 0 0.138-0.008 0.203-0.024l-0.006 0.001 26.737-6.168c0.482-0.055 0.854-0.46 0.854-0.953 0-0.529-0.429-0.958-0.958-0.958-0.107 0-0.211 0.018-0.307 0.050l0.007-0.002zM203.72-41.055c-9.164 0.256-18.261 0.877-27.466 2.052-0.378 0.053-0.665 0.374-0.665 0.762 0 0.026 0.001 0.052 0.004 0.078v-0.003c0.072 0.379 0.401 0.662 0.796 0.662 0.014 0 0.028 0 0.043-0.001h-0.002c7.98-1.028 17.443-1.724 27.027-1.925l0.29-0.005c0.031 0.004 0.068 0.007 0.104 0.007 0.447 0 0.81-0.363 0.81-0.81s-0.363-0.81-0.81-0.81c-0.037 0-0.073 0.002-0.108 0.007h0.004zM149.18-33.889c-10.185 2.594-18.867 5.605-27.214 9.242l1.138-0.442c-0.213 0.094-0.359 0.303-0.359 0.547 0 0.329 0.267 0.595 0.595 0.595 0.085 0 0.167-0.018 0.24-0.050l-0.004 0.001c7.17-3.116 15.815-6.043 24.731-8.286l1.209-0.258c0.306-0.091 0.526-0.37 0.526-0.7 0-0.048-0.005-0.096-0.014-0.141l0.001 0.005c-0.086-0.289-0.349-0.495-0.661-0.495-0.063 0-0.123 0.008-0.181 0.024l0.005-0.001zM98.877-11.983c-7.938 5.318-14.86 11.096-21.123 17.519l-0.026 0.027c-0.083 0.085-0.135 0.202-0.135 0.331s0.052 0.246 0.135 0.331v0c0.075 0.089 0.186 0.145 0.31 0.145s0.236-0.056 0.31-0.144l0.001-0.001c6.268-6.386 13.168-12.111 20.61-17.087l0.472-0.297c0.085-0.097 0.137-0.225 0.137-0.364s-0.052-0.268-0.137-0.365l0.001 0.001c-0.093-0.094-0.222-0.152-0.364-0.152s-0.271 0.058-0.364 0.152v0zM60.884 27.36c-4.433 7.083-8.458 15.251-11.64 23.828l-0.305 0.939c-0.052 0.052-0.084 0.123-0.084 0.202 0 0.158 0.128 0.286 0.286 0.286 0.079 0 0.151-0.032 0.202-0.084v0c3.531-9.436 7.575-17.528 12.345-25.118l-0.333 0.567c0.084-0.070 0.138-0.175 0.138-0.292 0-0.209-0.169-0.378-0.378-0.378-0.107 0-0.204 0.045-0.273 0.116v0zM41.826 78.688c-1.482 8.061-2.454 17.482-2.695 27.084l-0.005 0.233c-0.004 0.015-0.007 0.032-0.007 0.050 0 0.104 0.085 0.189 0.189 0.189s0.189-0.085 0.189-0.189c0-0.018-0.002-0.035-0.007-0.051v0.001c0.316-9.862 1.353-19.246 3.066-28.393l-0.178 1.143s0-0.256-0.216-0.297c-0.003 0-0.007 0-0.011 0-0.135 0-0.249 0.090-0.285 0.214l-0.001 0.002zM39.991 133.417v0zM62.719 112.808l-23.12 14.644-26.562-6.465 34.525 54.756zM604.804 288.536l-3.658 73.058-49.749-53.771 29.585 1.606c-3.863-7.525-7.502-13.706-11.441-19.672l0.482 0.777c-6.241-9.465-12.658-17.704-19.654-25.408l0.151 0.169c-14.152-15.396-30.75-28.264-49.23-38.054l-0.991-0.479c-17.276-9.173-37.311-16.309-58.444-20.355l-1.347-0.215c-17.411-3.462-37.429-5.444-57.91-5.444-1.857 0-3.71 0.016-5.56 0.049l0.278-0.004c-37.415 0.86-73.26 5.732-107.689 14.204l3.399-0.707c10.889 19.867 17.294 43.529 17.294 68.687 0 38.296-14.841 73.127-39.086 99.052l0.076-0.082q4.859 12.309 9.718 24.767 26.629 68.496 50.707 138.004c0.324 0.877 0.621 1.822 0.945 2.699h0.364l12.93 3.658c4.386 1.093 8.8 1.903 13.227 2.888 2.186 0.432 4.386 0.945 6.613 1.35l6.748 0.837c4.494 0.513 8.948 1.201 13.497 1.606l13.497 0.553c2.267 0 4.535 0.297 6.748 0.216l6.748-0.256h3.428l-15.602-25.064 71.047 17.789-62.463 38.763 7.302-29.221-3.914 0.297-6.829 0.472h-20.515c-4.562-0.216-9.137-0.769-13.659-1.134l-6.87-0.621-6.748-1.174c-4.494-0.837-9.016-1.498-13.497-2.483l-10.487-2.699c15.049 43.622 29.221 87.729 41.462 132.12 6.748 23.565 12.417 47.482 17.937 71.344l7.045 36.050 3.658 26.926 27.763-12.97-26.035 68.415-30.84-66.661 27.682 10.595-4.197-26.197-7.923-35.834c-6.114-23.633-12.309-47.239-19.611-70.575-14.064-45.983-29.882-91.319-46.793-136.466l-5.885-2.079c-36.065-13.516-66.824-33.739-92.131-59.36l-0.025-0.025c-2.416-2.416-4.751-4.899-7.086-7.302q7.707 35.173 12.012 70.899c2.375 16.547 3.172 33.202 4.535 49.83l0.661 24.983c0 4.171 0.256 8.328 0.216 12.498l-0.472 12.539c-0.324 8.328-0.405 16.615-0.877 24.956l-2.267 24.834c-0.405 4.13-0.661 8.287-1.201 12.417l-1.93 12.147-2.2 14.509 31.447-6.209-44.35 63.853-14.846-76.378 25.576 17.937 1.674-13.996 1.498-12.309c0.405-4.13 0.472-8.26 0.769-12.377l1.35-24.767v-37.143c0-4.13-0.472-8.26-0.688-12.35l-1.539-24.726c-1.93-16.358-3.293-32.878-6.249-49.061-5.669-35.971-12.84-67.078-21.926-97.358l1.33 5.161c-7.859-9.733-15.785-20.669-23.145-32.005l-0.934-1.534c-4.171 0.364-8.368 0.58-12.633 0.58-80.113 0-145.057-64.944-145.057-145.057s64.944-145.057 145.057-145.057v0c2.807 0 5.628 0 8.395 0.256 2.848-3.658 5.628-7.302 8.287-10.959 6.121-8.286 12.169-17.731 17.591-27.57l0.67-1.327c4.848-8.6 9.63-18.829 13.67-29.425l0.542-1.618c6.597-16.864 11.367-36.435 13.42-56.807l0.077-0.945-24.078 10.959 23.7-60.965 27.102 59.548-25.252-9.88c-1.443 21.608-5.679 41.749-12.365 60.734l0.488-1.591c-4.281 12.564-8.842 23.109-14.115 33.223l0.619-1.303c-5.854 11.653-11.684 21.447-18.114 30.796l0.568-0.874c-1.93 2.888-3.941 5.736-5.952 8.543 44.665 4.773 82.796 29.2 106.032 64.339l0.336 0.54c32.471-7.323 69.763-11.52 108.034-11.52 0.928 0 1.856 0.002 2.783 0.007l-0.143-0.001c23.027 0.279 45.282 2.925 66.732 7.704l-2.15-0.402c22.936 5.055 43.225 12.941 61.845 23.439l-1.11-0.575c19.502 10.983 36.094 24.58 50.001 40.574l0.193 0.227c11.469 13.328 21.409 28.48 29.242 44.833l0.532 1.232zM212.601 482.43c12.15 12.809 25.394 24.34 39.661 34.529l0.829 0.562c13.628 9.848 29.198 18.446 45.774 25.060l1.465 0.516 1.755 0.688q-25.131-66.58-52.637-132.322-4.049-9.826-8.287-19.611c-15.85 14.080-35.027 24.788-56.181 30.795l-1.018 0.247c0.688 2.227 1.35 4.413 2.052 6.654 2.227 8.098 4.562 16.115 6.654 24.186 0.688 2.551 1.35 5.156 1.971 7.707 5.682 7.221 11.634 14.239 17.964 20.987zM171.544 428.443c-0.297-0.837-0.621-1.714-0.918-2.591h-0.58c0.499 0.837 0.985 1.809 1.498 2.591zM202.371 834.75c0-7.767-6.297-14.064-14.064-14.064s-14.064 6.297-14.064 14.064c0 7.767 6.297 14.064 14.064 14.064s14.064-6.297 14.064-14.064z" />
<glyph unicode="&#xe906;" glyph-name="insert_comment" d="M768 596.667v86h-512v-86h512zM768 468.667v86h-512v-86h512zM768 340.667v86h-512v-86h512zM854 852.667q34 0 59-25t25-59v-768l-170 170h-598q-34 0-59 26t-25 60v512q0 34 25 59t59 25h684z" />
<glyph unicode="&#xe907;" glyph-name="gift" d="M810.667 597.334h-100.352c9.344 19.499 15.019 41.003 15.019 64 0 82.347-66.987 149.333-149.333 149.333-41.771 0-79.531-17.365-106.667-45.141-27.136 27.776-64.896 45.141-106.667 45.141-82.347 0-149.333-66.987-149.333-149.333 0-22.997 5.675-44.501 15.019-64h-100.352c-23.595 0-42.667-19.115-42.667-42.667v-170.667c0-23.552 19.072-42.667 42.667-42.667v-213.333c0-70.571 57.429-128 128-128h426.667c70.571 0 128 57.429 128 128v213.333c23.595 0 42.667 19.115 42.667 42.667v170.667c0 23.552-19.072 42.667-42.667 42.667zM768 426.667h-213.333v85.333h213.333v-85.333zM426.667 640h85.333v-42.667h-85.333v42.667zM512 512v-85.333h-85.333v85.333h85.333zM576 725.334c35.285 0 64-28.715 64-64s-28.715-64-64-64c-7.552 0-14.677 1.664-21.333 4.139v38.528c0 22.229-17.237 39.979-38.955 41.899 8.619 25.173 32.256 43.435 60.288 43.435zM298.667 661.334c0 35.285 28.715 64 64 64 28.032 0 51.669-18.261 60.288-43.435-21.717-1.92-38.955-19.669-38.955-41.899v-38.528c-6.656-2.475-13.781-4.139-21.333-4.139-35.285 0-64 28.715-64 64zM384 512v-85.333h-213.333v85.333h213.333zM256 85.334c-23.509 0-42.667 19.157-42.667 42.667v256h170.667v-298.667h-128zM426.667 85.334v298.667h85.333v-298.667h-85.333zM682.667 85.334h-128v298.667h170.667v-256c0-23.509-19.157-42.667-42.667-42.667z" />
<glyph unicode="&#xe908;" glyph-name="bell" d="M841.173 200.491c-0.725 0.768-73.259 79.104-73.813 269.653-0.384 111.232-72.107 205.824-171.477 240.683 0.768 4.736 1.451 9.515 1.451 14.507 0 47.061-38.229 85.333-85.333 85.333s-85.333-38.272-85.333-85.333c0-4.949 0.683-9.728 1.451-14.421-99.669-34.816-171.477-129.536-171.477-240.896 0-190.379-73.003-268.629-73.429-269.056-12.245-12.203-15.957-30.549-9.387-46.549s22.229-26.411 39.509-26.411h134.101c19.072-73.387 85.291-128 164.565-128s145.493 54.613 164.565 128h134.101c17.067 0 32.341 10.368 39.040 26.027s3.243 34.091-8.533 46.464zM512 640c93.397 0 169.728-76.331 169.984-170.112 0.085-31.061 1.963-59.563 5.035-85.888h-349.867c3.029 26.325 4.821 54.869 4.821 86.016 0.043 93.696 76.288 169.984 170.027 169.984zM512 85.334c-31.445 0-58.667 17.28-73.472 42.667h146.901c-14.763-25.387-41.984-42.667-73.429-42.667zM290.731 213.334c15.019 31.403 30.080 73.856 40.021 128h362.752c9.984-54.144 25.088-96.597 40.021-128h-442.795z" />
<glyph unicode="&#xe909;" glyph-name="comments-o" d="M402.286 731.428c-178.286 0-329.143-100.571-329.143-219.429 0-62.857 42.286-123.429 115.429-165.714l55.429-32-20-48c12 6.857 24 14.286 35.429 22.286l25.143 17.714 30.286-5.714c28.571-5.143 57.714-8 87.429-8 178.286 0 329.143 100.571 329.143 219.429s-150.857 219.429-329.143 219.429zM402.286 804.571c222.286 0 402.286-130.857 402.286-292.571s-180-292.571-402.286-292.571c-34.857 0-68.571 3.429-100.571 9.143-47.429-33.714-101.143-58.286-158.857-73.143-15.429-4-32-6.857-49.143-9.143h-1.714c-8.571 0-16.571 6.857-18.286 16.571v0c-2.286 10.857 5.143 17.714 11.429 25.143 22.286 25.143 47.429 47.429 66.857 94.857-92.571 53.714-152 136.571-152 229.143 0 161.714 180 292.571 402.286 292.571zM872 136.571c19.429-47.429 44.571-69.714 66.857-94.857 6.286-7.429 13.714-14.286 11.429-25.143v0c-2.286-10.286-10.857-17.714-20-16.571-17.143 2.286-33.714 5.143-49.143 9.143-57.714 14.857-111.429 39.429-158.857 73.143-32-5.714-65.714-9.143-100.571-9.143-103.429 0-198.286 28.571-269.714 75.429 16.571-1.143 33.714-2.286 50.286-2.286 122.857 0 238.857 35.429 327.429 99.429 95.429 69.714 148 164 148 266.286 0 29.714-4.571 58.857-13.143 86.857 96.571-53.143 159.429-137.714 159.429-233.143 0-93.143-59.429-175.429-152-229.143z" />
<glyph unicode="&#xe90a;" glyph-name="close" d="M512 533.197l-362.035 362.035-72.397-72.397 362.035-362.035-362.035-362.035 72.397-72.397 362.035 362.035 362.035-362.035 72.397 72.397-362.035 362.035 362.035 362.035-72.397 72.397-362.035-362.035z" />
<glyph unicode="&#xe90b;" glyph-name="notifications-outline" d="M307.2 563.2v-358.4h409.6v358.4c0 113.108-91.692 204.8-204.8 204.8s-204.8-91.692-204.8-204.8v0zM411.136 853.504c-0.815 4.852-1.28 10.442-1.28 16.14 0 56.554 45.846 102.4 102.4 102.4s102.4-45.846 102.4-102.4c0-5.699-0.465-11.288-1.361-16.734l0.081 0.593c120.875-43.156 205.824-156.653 205.824-289.991 0-0.11 0-0.22 0-0.33v0.017-307.2l153.6-102.4v-51.2h-921.6v51.2l153.6 102.4v307.2c0 0.040 0 0.087 0 0.135 0 133.528 85.193 247.159 204.189 289.503l2.147 0.666zM614.4 51.2c0-56.554-45.846-102.4-102.4-102.4s-102.4 45.846-102.4 102.4v0h204.8z" />
<glyph unicode="&#xe90c;" glyph-name="bell-o" d="M521.143-18.286c0 5.143-4 9.143-9.143 9.143-45.143 0-82.286 37.143-82.286 82.286 0 5.143-4 9.143-9.143 9.143s-9.143-4-9.143-9.143c0-55.429 45.143-100.571 100.571-100.571 5.143 0 9.143 4 9.143 9.143zM140.571 146.286h742.857c-102.286 115.429-152 272-152 475.429 0 73.714-69.714 182.857-219.429 182.857s-219.429-109.143-219.429-182.857c0-203.429-49.714-360-152-475.429zM987.429 146.286c0-40-33.143-73.143-73.143-73.143h-256c0-80.571-65.714-146.286-146.286-146.286s-146.286 65.714-146.286 146.286h-256c-40 0-73.143 33.143-73.143 73.143 84.571 71.429 182.857 199.429 182.857 475.429 0 109.714 90.857 229.714 242.286 252-2.857 6.857-4.571 14.286-4.571 22.286 0 30.286 24.571 54.857 54.857 54.857s54.857-24.571 54.857-54.857c0-8-1.714-15.429-4.571-22.286 151.429-22.286 242.286-142.286 242.286-252 0-276 98.286-404 182.857-475.429z" />
<glyph unicode="&#xe90d;" glyph-name="shopping-basket" horiz-adv-x="1170" d="M1097.143 512c40.571 0 73.143-32.571 73.143-73.143s-32.571-73.143-73.143-73.143h-8.571l-65.714-378.286c-6.286-34.857-36.571-60.571-72-60.571h-731.429c-35.429 0-65.714 25.714-72 60.571l-65.714 378.286h-8.571c-40.571 0-73.143 32.571-73.143 73.143s32.571 73.143 73.143 73.143h1024zM277.143 54.857c20 1.714 35.429 19.429 33.714 39.429l-18.286 237.714c-1.714 20-19.429 35.429-39.429 33.714s-35.429-19.429-33.714-39.429l18.286-237.714c1.714-18.857 17.714-33.714 36.571-33.714h2.857zM512 91.428v237.714c0 20-16.571 36.571-36.571 36.571s-36.571-16.571-36.571-36.571v-237.714c0-20 16.571-36.571 36.571-36.571s36.571 16.571 36.571 36.571zM731.429 91.428v237.714c0 20-16.571 36.571-36.571 36.571s-36.571-16.571-36.571-36.571v-237.714c0-20 16.571-36.571 36.571-36.571s36.571 16.571 36.571 36.571zM932.571 88.571l18.286 237.714c1.714 20-13.714 37.714-33.714 39.429s-37.714-13.714-39.429-33.714l-18.286-237.714c-1.714-20 13.714-37.714 33.714-39.429h2.857c18.857 0 34.857 14.857 36.571 33.714zM272 784l-53.143-235.429h-75.429l57.714 252c14.857 66.857 73.714 113.714 142.286 113.714h95.429c0 20 16.571 36.571 36.571 36.571h219.429c20 0 36.571-16.571 36.571-36.571h95.429c68.571 0 127.429-46.857 142.286-113.714l57.714-252h-75.429l-53.143 235.429c-8 33.714-37.143 57.143-71.429 57.143h-95.429c0-20-16.571-36.571-36.571-36.571h-219.429c-20 0-36.571 16.571-36.571 36.571h-95.429c-34.286 0-63.429-23.429-71.429-57.143z" />
<glyph unicode="&#xe90e;" glyph-name="comments" horiz-adv-x="1100" d="M804.224 538.72c0 165.28-180.064 299.264-402.112 299.264-222.080 0-402.112-133.984-402.112-299.264 0-99.328 65.024-187.328 165.12-241.76-0.288-0.864-79.744-145.44-79.744-145.44s242.624 92.544 243.296 92.928c23.808-3.296 48.352-4.96 73.44-4.96 222.048 0 402.112 133.984 402.112 299.232zM1100.32 445.216c0 165.248-169.504 298.048-352.992 299.232 263.040-262.016-46.752-541.184-299.232-541.184 0 0 28.064-57.28 250.112-57.28 25.056 0 49.632 1.728 73.44 4.992 0.672-0.448 243.328-92.928 243.328-92.928s-79.488 144.544-79.744 145.408c100.064 54.432 165.088 142.464 165.088 241.76z" />
<glyph unicode="&#xe90f;" glyph-name="diamond, gem" d="M67.296 574.336l428.736-532.128-171.936 532.128h-256.8zM370.688 574.336l151.84-533.216 130.656 533.216h-282.496zM545.632 42.208l412.736 532.128h-254.816l-157.92-532.128zM959.328 609.152l-123.744 211.584-123.808-211.584h247.552zM796.672 832.864h-247.552l123.744-218.848 123.808 218.848zM634.816 609.152l-123.744 211.584-123.776-211.584h247.52zM474.848 832.864h-247.52l123.776-218.848 123.744 218.848zM188.448 820.736l-123.744-211.584h247.52l-123.776 211.584z" />
<glyph unicode="&#xe910;" glyph-name="diamond1, gem1" d="M1005.248 650.336l-162.56 162.592c-12 12-28.32 18.752-45.248 18.752h-570.848c-16.96 0-33.248-6.752-45.248-18.752l-162.56-162.592c-12.576-12.544-18.848-29.088-18.784-45.664 0.096-15.040 5.472-30.048 16.192-42.112l447.968-477.056c12.16-13.696 29.568-21.504 47.84-21.504s35.68 7.808 47.808 21.504l448 477.056c10.944 12.32 16.32 27.744 16.192 43.136-0.128 16.192-6.432 32.32-18.752 44.64zM583.008 607.68h-142.048l71.040 59.168 71.008-59.168zM537.024 687.68l87.424 72.896 64.576-64.576-81.024-67.488-70.976 59.168zM416 628.512l-81.024 67.488 64.576 64.576 87.456-72.896-71.008-59.168zM591.68 575.68l-79.68-398.496-79.68 398.496h159.36zM624.32 575.68h156.992l-235.488-392.608 78.496 392.608zM632.928 607.68l78.816 65.632 65.632-65.632h-144.448zM662.624 767.68h112.384l-61.312-51.104-51.072 51.104zM512 708.48l-71.040 59.2h142.016l-70.976-59.2zM310.272 716.576l-61.312 51.104h112.416l-51.104-51.104zM312.256 673.312l78.784-65.632h-144.416l65.632 65.632zM399.68 575.68l78.496-392.608-235.52 392.608h157.024zM406.528 240.384l-314.88 335.296h113.728l201.152-335.296zM818.624 575.68h113.76l-314.944-335.36 201.184 335.36zM822.624 607.68l-86.176 86.176 73.504 61.28 147.424-147.456h-134.752zM213.952 755.2l73.632-61.344-86.208-86.176h-137.184l149.76 147.52z" />
<glyph unicode="&#xe911;" glyph-name="user-21" horiz-adv-x="993" d="M992.954-51.2v124.137c0 137.092-111.135 248.227-248.227 248.227v0h-496.5c-137.092 0-248.227-111.135-248.227-248.227v0-124.137zM713.681 740.073c0-128.532-104.196-232.727-232.727-232.727s-232.727 104.196-232.727 232.727c0 128.532 104.196 232.727 232.727 232.727s232.727-104.196 232.727-232.727z" />
<glyph unicode="&#xe916;" glyph-name="search1" d="M660.48 239.616c-68.622-53.712-156.164-86.131-251.277-86.131-226.216 0-409.6 183.384-409.6 409.6s183.384 409.6 409.6 409.6c226.216 0 409.6-183.384 409.6-409.6 0-95.113-32.419-182.654-86.809-252.177l0.678 0.9 273.92-272.896-72.704-72.704-272.896 273.408zM409.6 256c169.662 0 307.2 137.538 307.2 307.2s-137.538 307.2-307.2 307.2v0c-169.662 0-307.2-137.538-307.2-307.2s137.538-307.2 307.2-307.2v0z" />
<glyph unicode="&#xe917;" glyph-name="gift2" d="M759.296 768h264.704v-307.2h-51.2v-512h-921.6v512h-51.2v307.2h264.704c-5.655 15.36-8.927 33.099-8.927 51.601 0 84.831 68.769 153.6 153.6 153.6 39.514 0 75.544-14.921 102.761-39.436l-0.138 0.122c27.079 24.392 63.109 39.313 102.623 39.313 84.831 0 153.6-68.769 153.6-153.6 0-18.503-3.272-36.241-9.268-52.669l0.341 1.067zM409.6 460.8h-256v-409.6h256v409.6zM614.4 460.8v-409.6h256v409.6h-256zM409.6 665.6h-307.2v-102.4h307.2v102.4zM614.4 665.6v-102.4h307.2v102.4h-307.2zM409.6 768c28.277 0 51.2 22.923 51.2 51.2s-22.923 51.2-51.2 51.2v0c-28.277 0-51.2-22.923-51.2-51.2s22.923-51.2 51.2-51.2v0zM614.4 768c28.277 0 51.2 22.923 51.2 51.2s-22.923 51.2-51.2 51.2v0c-28.277 0-51.2-22.923-51.2-51.2s22.923-51.2 51.2-51.2v0z" />
<glyph unicode="&#xe918;" glyph-name="local_grocery_store" d="M726 170.667q34 0 59-26t25-60-25-59-59-25-60 25-26 59 26 60 60 26zM42 852.667h140l40-84h632q18 0 30-13t12-31q0-2-6-20l-152-276q-24-44-74-44h-318l-38-70-2-6q0-10 10-10h494v-86h-512q-34 0-59 26t-25 60q0 20 10 40l58 106-154 324h-86v84zM298 170.667q34 0 60-26t26-60-26-59-60-25-59 25-25 59 25 60 59 26z" />
<glyph unicode="&#xe93a;" glyph-name="cart" d="M384 32c0-53.019-42.981-96-96-96s-96 42.981-96 96c0 53.019 42.981 96 96 96s96-42.981 96-96zM1024 32c0-53.019-42.981-96-96-96s-96 42.981-96 96c0 53.019 42.981 96 96 96s96-42.981 96-96zM1024 448v384h-768c0 35.346-28.654 64-64 64h-192v-64h128l48.074-412.054c-29.294-23.458-48.074-59.5-48.074-99.946 0-70.696 57.308-128 128-128h768v64h-768c-35.346 0-64 28.654-64 64 0 0.218 0.014 0.436 0.016 0.656l831.984 127.344z" />
<glyph unicode="&#xe93f;" glyph-name="credit-card" d="M928 832h-832c-52.8 0-96-43.2-96-96v-576c0-52.8 43.2-96 96-96h832c52.8 0 96 43.2 96 96v576c0 52.8-43.2 96-96 96zM96 768h832c17.346 0 32-14.654 32-32v-96h-896v96c0 17.346 14.654 32 32 32zM928 128h-832c-17.346 0-32 14.654-32 32v288h896v-288c0-17.346-14.654-32-32-32zM128 320h64v-128h-64zM256 320h64v-128h-64zM384 320h64v-128h-64z" />
<glyph unicode="&#xe994;" glyph-name="cog" d="M933.79 349.75c-53.726 93.054-21.416 212.304 72.152 266.488l-100.626 174.292c-28.75-16.854-62.176-26.518-97.846-26.518-107.536 0-194.708 87.746-194.708 195.99h-201.258c0.266-33.41-8.074-67.282-25.958-98.252-53.724-93.056-173.156-124.702-266.862-70.758l-100.624-174.292c28.97-16.472 54.050-40.588 71.886-71.478 53.638-92.908 21.512-211.92-71.708-266.224l100.626-174.292c28.65 16.696 61.916 26.254 97.4 26.254 107.196 0 194.144-87.192 194.7-194.958h201.254c-0.086 33.074 8.272 66.57 25.966 97.218 53.636 92.906 172.776 124.594 266.414 71.012l100.626 174.29c-28.78 16.466-53.692 40.498-71.434 71.228zM512 240.668c-114.508 0-207.336 92.824-207.336 207.334 0 114.508 92.826 207.334 207.336 207.334 114.508 0 207.332-92.826 207.332-207.334-0.002-114.51-92.824-207.334-207.332-207.334z" />
<glyph unicode="&#xe99f;" glyph-name="gift1" d="M771.516 640c18.126 12.88 35.512 27.216 51.444 43.148 33.402 33.402 55.746 74.5 62.912 115.722 7.858 45.186-3.672 87.14-31.63 115.1-22.3 22.298-52.51 34.086-87.364 34.086-49.632 0-101.922-23.824-143.46-65.362-66.476-66.476-105.226-158.238-126.076-223.722-15.44 65.802-46.206 154.644-106.018 214.458-32.094 32.092-73.114 48.57-111.846 48.57-31.654 0-61.78-11.004-84.26-33.486-49.986-49.988-43.232-137.786 15.086-196.104 20.792-20.792 45.098-38.062 70.72-52.412h-217.024v-256h64v-448h768v448.002h64v256h-188.484zM674.326 831.782c27.724 27.724 62.322 44.274 92.55 44.274 10.7 0 25.708-2.254 36.45-12.998 26.030-26.028 11.412-86.308-31.28-128.998-43.946-43.946-103.060-74.168-154.432-94.060h-50.672c18.568 57.548 52.058 136.456 107.384 191.782zM233.934 799.11c-0.702 9.12-0.050 26.248 12.196 38.494 10.244 10.244 23.788 12.396 33.348 12.396v0c21.258 0 43.468-10.016 60.932-27.48 33.872-33.872 61.766-87.772 80.668-155.876 0.51-1.84 1.008-3.67 1.496-5.486-1.816 0.486-3.646 0.984-5.486 1.496-68.104 18.904-122.002 46.798-155.874 80.67-15.828 15.826-25.77 36.16-27.28 55.786zM448 0h-256v416h256v-416zM448 448h-320v128h320v-128zM832 0h-256v416h256v-416zM896 448h-320v128h320v-128z" />
<glyph unicode="&#xea40;" glyph-name="arrow-left2" d="M402.746 82.746l-320 320c-24.994 24.992-24.994 65.516 0 90.51l320 320c24.994 24.992 65.516 24.992 90.51 0 24.994-24.994 24.994-65.516 0-90.51l-210.746-210.746h613.49c35.346 0 64-28.654 64-64s-28.654-64-64-64h-613.49l210.746-210.746c12.496-12.496 18.744-28.876 18.744-45.254s-6.248-32.758-18.744-45.254c-24.994-24.994-65.516-24.994-90.51 0z" />
<glyph unicode="&#xea92;" glyph-name="instagram1" d="M512 867.8c136.8 0 153-0.6 206.8-3 50-2.2 77-10.6 95-17.6 23.8-9.2 41-20.4 58.8-38.2 18-18 29-35 38.4-58.8 7-18 15.4-45.2 17.6-95 2.4-54 3-70.2 3-206.8s-0.6-153-3-206.8c-2.2-50-10.6-77-17.6-95-9.2-23.8-20.4-41-38.2-58.8-18-18-35-29-58.8-38.4-18-7-45.2-15.4-95-17.6-54-2.4-70.2-3-206.8-3s-153 0.6-206.8 3c-50 2.2-77 10.6-95 17.6-23.8 9.2-41 20.4-58.8 38.2-18 18-29 35-38.4 58.8-7 18-15.4 45.2-17.6 95-2.4 54-3 70.2-3 206.8s0.6 153 3 206.8c2.2 50 10.6 77 17.6 95 9.2 23.8 20.4 41 38.2 58.8 18 18 35 29 58.8 38.4 18 7 45.2 15.4 95 17.6 53.8 2.4 70 3 206.8 3zM512 960c-139 0-156.4-0.6-211-3-54.4-2.4-91.8-11.2-124.2-23.8-33.8-13.2-62.4-30.6-90.8-59.2-28.6-28.4-46-57-59.2-90.6-12.6-32.6-21.4-69.8-23.8-124.2-2.4-54.8-3-72.2-3-211.2s0.6-156.4 3-211c2.4-54.4 11.2-91.8 23.8-124.2 13.2-33.8 30.6-62.4 59.2-90.8 28.4-28.4 57-46 90.6-59 32.6-12.6 69.8-21.4 124.2-23.8 54.6-2.4 72-3 211-3s156.4 0.6 211 3c54.4 2.4 91.8 11.2 124.2 23.8 33.6 13 62.2 30.6 90.6 59s46 57 59 90.6c12.6 32.6 21.4 69.8 23.8 124.2 2.4 54.6 3 72 3 211s-0.6 156.4-3 211c-2.4 54.4-11.2 91.8-23.8 124.2-12.6 34-30 62.6-58.6 91-28.4 28.4-57 46-90.6 59-32.6 12.6-69.8 21.4-124.2 23.8-54.8 2.6-72.2 3.2-211.2 3.2v0zM512 711c-145.2 0-263-117.8-263-263s117.8-263 263-263 263 117.8 263 263c0 145.2-117.8 263-263 263zM512 277.4c-94.2 0-170.6 76.4-170.6 170.6s76.4 170.6 170.6 170.6c94.2 0 170.6-76.4 170.6-170.6s-76.4-170.6-170.6-170.6zM846.8 721.4c0-33.91-27.49-61.4-61.4-61.4s-61.4 27.49-61.4 61.4c0 33.91 27.49 61.4 61.4 61.4s61.4-27.49 61.4-61.4z" />
</font>
</defs>
</svg>
