<!-- Generated by IcoMoon.io -->
<svg version="1.1" xmlns="http://www.w3.org/2000/svg" width="30" height="32" viewBox="0 0 30 32">
<title>Layer-2-1</title>
<path d="M30.309 7.132c-0.174-2.428-2.186-4.331-4.643-4.331-0.603 0-1.18 0.115-1.709 0.324l0.032-0.011c-0.488 0.2-1.054 0.315-1.647 0.315-0.709 0-1.378-0.165-1.973-0.459l0.026 0.012c-0.876-0.444-1.894-0.817-2.96-1.067l-0.094-0.018c-0.583-0.13-1.065-0.485-1.361-0.967l-0.005-0.009c-0.331-0.554-0.928-0.92-1.611-0.92-0.665 0-1.25 0.347-1.581 0.871l-0.005 0.008c-0.308 0.481-0.791 0.827-1.358 0.948l-0.014 0.003c-2.154 0.462-4.045 1.367-5.654 2.618l0.031-0.023c-0.382 0.303-0.872 0.486-1.404 0.486-0.149 0-0.294-0.014-0.435-0.042l0.014 0.002c-0.161-0.034-0.347-0.054-0.537-0.054-1.484 0-2.687 1.203-2.687 2.687 0 0.464 0.117 0.9 0.324 1.28l-0.007-0.014c0.175 0.312 0.278 0.686 0.278 1.083 0 0.276-0.050 0.541-0.141 0.785l0.005-0.016c-0.55 1.439-0.868 3.103-0.868 4.842 0 1.344 0.19 2.644 0.545 3.874l-0.024-0.098c0.058 0.188 0.092 0.404 0.092 0.627 0 0.473-0.15 0.91-0.404 1.268l0.005-0.007c-0.337 0.458-0.539 1.034-0.539 1.657 0 1.555 1.26 2.815 2.815 2.815 0.187 0 0.37-0.018 0.547-0.053l-0.018 0.003c0.125-0.025 0.269-0.039 0.416-0.039 0.551 0 1.056 0.201 1.444 0.533l-0.003-0.003c1.277 1.098 2.78 1.978 4.424 2.557l0.098 0.030c0.6 0.203 1.076 0.635 1.334 1.189l0.006 0.014c0.568 1.288 1.834 2.17 3.305 2.17 1.479 0 2.749-0.891 3.304-2.165l0.009-0.023c0.243-0.58 0.702-1.028 1.275-1.251l0.015-0.005c1.411-0.519 2.632-1.199 3.725-2.038l-0.033 0.024c0.363-0.273 0.822-0.438 1.319-0.438 0.16 0 0.316 0.017 0.466 0.049l-0.015-0.003c0.211 0.043 0.454 0.068 0.702 0.068 0.14 0 0.279-0.008 0.415-0.023l-0.017 0.002c1.812-0.206 3.207-1.73 3.207-3.581 0-0.763-0.237-1.471-0.643-2.054l0.008 0.012c-0.252-0.353-0.402-0.793-0.402-1.269 0-0.178 0.021-0.352 0.061-0.518l-0.003 0.015c0.257-1.004 0.404-2.156 0.404-3.342 0-0.85-0.076-1.682-0.221-2.49l0.013 0.085c-0.024-0.121-0.037-0.26-0.037-0.402 0-0.661 0.292-1.254 0.753-1.657l0.003-0.002c1.008-0.857 1.643-2.127 1.643-3.544 0-0.111-0.004-0.221-0.012-0.33l0.001 0.015zM27.502 15.462c-0 0.544-0.033 1.081-0.097 1.608l0.006-0.064c-0.126 1.125-1.072 1.991-2.22 1.991-0 0-0.001 0-0.001 0h-0.193c-1.935 0.069-3.478 1.655-3.478 3.6 0 0.549 0.123 1.069 0.342 1.534l-0.009-0.022c0.122 0.264 0.193 0.572 0.193 0.898 0 0.797-0.428 1.494-1.066 1.874l-0.010 0.006c-0.224 0.133-0.455 0.26-0.689 0.38-0.286 0.146-0.624 0.231-0.982 0.231-0.787 0-1.477-0.412-1.867-1.033l-0.005-0.009c-0.648-1.021-1.772-1.69-3.053-1.69-1.311 0-2.459 0.7-3.089 1.747l-0.009 0.016c-0.395 0.637-1.090 1.056-1.883 1.056-0.363 0-0.706-0.088-1.008-0.243l0.012 0.006c-0.813-0.403-1.511-0.839-2.161-1.333l0.032 0.024c-0.531-0.409-0.87-1.045-0.87-1.76 0-0.243 0.039-0.477 0.111-0.695l-0.004 0.016c0.081-0.25 0.127-0.537 0.127-0.836 0-1.329-0.921-2.443-2.159-2.738l-0.019-0.004c-0.098-0.023-0.196-0.039-0.293-0.052-0.913-0.1-1.648-0.759-1.86-1.622l-0.003-0.015c-0.197-0.858-0.31-1.843-0.31-2.854 0-1.33 0.195-2.614 0.559-3.826l-0.024 0.094c0.28-0.886 1.081-1.523 2.035-1.554l0.004-0c0.113-0.006 0.217-0.018 0.32-0.035l-0.016 0.002c1.286-0.217 2.254-1.322 2.254-2.653 0-0.253-0.035-0.498-0.1-0.73l0.005 0.019c-0.043-0.163-0.068-0.351-0.068-0.545 0-0.779 0.403-1.464 1.013-1.857l0.009-0.005c1.143-0.763 2.471-1.368 3.892-1.742l0.092-0.021c0.166-0.046 0.357-0.073 0.554-0.073 0.593 0 1.13 0.24 1.519 0.629v0c0.339 0.348 0.813 0.564 1.337 0.564 0.506 0 0.965-0.202 1.301-0.529l-0 0c0.393-0.38 0.929-0.613 1.519-0.613 0.208 0 0.41 0.029 0.601 0.083l-0.015-0.004c0.884 0.248 1.645 0.546 2.369 0.909l-0.076-0.034c0.727 0.369 1.216 1.112 1.216 1.968 0 0.226-0.034 0.444-0.097 0.649l0.004-0.016c-0.115 0.384-0.181 0.826-0.181 1.283 0 2.441 1.881 4.444 4.272 4.637l0.017 0.001h0.047c1.081 0.065 1.949 0.896 2.072 1.954l0.001 0.010c0.050 0.423 0.080 0.915 0.082 1.414v0.003z"></path>
</svg>
