<!-- Generated by IcoMoon.io -->
<svg version="1.1" xmlns="http://www.w3.org/2000/svg" width="21" height="32" viewBox="0 0 21 32">
<title>Layer-2</title>
<path d="M5.688 3.946c0.013-0.084 0.030-0.155 0.048-0.228s0.040-0.145 0.062-0.217c0.047-0.142 0.099-0.281 0.16-0.417 0.027-0.060 0.086-0.101 0.155-0.101 0.093 0 0.169 0.076 0.169 0.169 0 0.025-0.005 0.048-0.015 0.069l0-0.001c-0.055 0.127-0.103 0.253-0.145 0.385-0.019 0.065-0.039 0.13-0.055 0.197s-0.031 0.135-0.039 0.189v0.005c-0.012 0.084-0.084 0.149-0.171 0.149-0.096 0-0.173-0.077-0.173-0.173 0-0.009 0.001-0.017 0.002-0.025l-0 0.001z"></path>
<path d="M6.395 2.309c0.178-0.25 0.368-0.47 0.577-0.671l0.002-0.002c0.030-0.033 0.073-0.053 0.121-0.053 0.091 0 0.165 0.074 0.165 0.165 0 0.050-0.022 0.095-0.057 0.125l-0 0c-0.194 0.189-0.369 0.394-0.525 0.614l-0.009 0.014c-0.031 0.031-0.073 0.051-0.121 0.051-0.093 0-0.169-0.076-0.169-0.169 0-0.026 0.006-0.051 0.017-0.074l-0 0.001z"></path>
<path d="M7.668 1.083c0.22-0.148 0.473-0.29 0.738-0.413l0.035-0.015c0.021-0.011 0.046-0.018 0.073-0.018 0.089 0 0.16 0.072 0.16 0.16 0 0.067-0.041 0.124-0.098 0.148l-0.001 0c-0.281 0.131-0.519 0.266-0.744 0.418l0.019-0.012c-0.025 0.017-0.057 0.028-0.091 0.028-0.090 0-0.162-0.073-0.162-0.162 0-0.056 0.028-0.105 0.071-0.134l0.001-0z"></path>
<path d="M9.265 0.342c0.225-0.070 0.512-0.138 0.804-0.19l0.047-0.007c0.008-0.002 0.018-0.003 0.028-0.003 0.087 0 0.158 0.071 0.158 0.158 0 0.078-0.056 0.142-0.129 0.156l-0.001 0c-0.326 0.060-0.6 0.128-0.868 0.211l0.052-0.014c-0.015 0.005-0.032 0.008-0.050 0.008-0.087 0-0.158-0.071-0.158-0.158 0-0.072 0.048-0.133 0.114-0.152l0.001-0z"></path>
<path d="M10.981 0.032l0.436-0.027c0.036-0.004 0.077-0.006 0.119-0.006s0.083 0.002 0.124 0.006l-0.005-0c0.090 0.010 0.172 0.029 0.251 0.057l-0.008-0.002c0.060 0.021 0.102 0.077 0.102 0.143 0 0.083-0.068 0.151-0.151 0.151-0.018 0-0.035-0.003-0.051-0.009l0.001 0c-0.051-0.018-0.11-0.031-0.172-0.037l-0.003-0c-0.029-0.003-0.062-0.005-0.096-0.005s-0.067 0.002-0.1 0.005l-0.421 0.034h-0.007c-0.005 0-0.010 0.001-0.015 0.001-0.086 0-0.156-0.070-0.156-0.156 0-0.084 0.067-0.153 0.15-0.156h0z"></path>
<path d="M12.571 0.747c0.024 0.071 0.041 0.153 0.049 0.239l0 0.004c0.001 0.019 0.002 0.041 0.002 0.063s-0.001 0.044-0.002 0.066l0-0.003c0.001 0.009 0.001 0.020 0.001 0.031s-0 0.022-0.001 0.032l0-0.001v0.052l-0.035 0.428c-0.006 0.076-0.070 0.136-0.148 0.136-0.082 0-0.148-0.066-0.148-0.148 0-0.004 0-0.008 0.001-0.013l-0 0.001 0.033-0.427v-0.191c-0.006-0.065-0.019-0.125-0.038-0.182l0.002 0.006c-0.008-0.018-0.013-0.039-0.013-0.060 0-0.083 0.067-0.15 0.15-0.15 0.071 0 0.13 0.049 0.146 0.115l0 0.001z"></path>
<path d="M12.932 2.125l0.846 0.202c0.062 0.017 0.107 0.072 0.107 0.138 0 0.079-0.064 0.143-0.143 0.143-0.010 0-0.020-0.001-0.030-0.003l0.001 0h-0.011l-0.827-0.193h-0.010c-0.064-0.016-0.112-0.073-0.112-0.141 0-0.080 0.065-0.145 0.145-0.145 0.012 0 0.023 0.001 0.034 0.004l-0.001-0z"></path>
<path d="M14.604 2.604c0.317 0.123 0.58 0.249 0.833 0.39l-0.033-0.017c0.043 0.024 0.071 0.070 0.071 0.121 0 0.025-0.006 0.048-0.018 0.068l0-0.001c-0.024 0.042-0.069 0.070-0.12 0.070-0.025 0-0.048-0.007-0.068-0.018l0.001 0c-0.211-0.118-0.465-0.236-0.727-0.338l-0.043-0.015c-0.049-0.022-0.083-0.071-0.083-0.128 0-0.078 0.063-0.14 0.14-0.14 0.016 0 0.031 0.003 0.045 0.007l-0.001-0z"></path>
<path d="M16.13 3.471c0.23 0.191 0.433 0.4 0.612 0.629l0.007 0.009c0.023 0.024 0.037 0.056 0.037 0.092 0 0.074-0.060 0.134-0.134 0.134-0.048 0-0.090-0.025-0.114-0.063l-0-0.001c-0.173-0.221-0.363-0.414-0.572-0.585l-0.007-0.005c-0.031-0.025-0.050-0.063-0.050-0.105 0-0.075 0.061-0.136 0.136-0.136 0.033 0 0.062 0.011 0.086 0.031l-0-0z"></path>
<path d="M17.192 4.879c0.105 0.247 0.187 0.536 0.234 0.836l0.003 0.021c0 0.004 0.001 0.008 0.001 0.012 0 0.072-0.058 0.13-0.13 0.13-0.062 0-0.114-0.044-0.127-0.102l-0-0.001c-0.046-0.297-0.124-0.564-0.231-0.816l0.008 0.022c-0.008-0.016-0.012-0.035-0.012-0.055 0-0.073 0.059-0.132 0.132-0.132 0.055 0 0.103 0.034 0.122 0.083l0 0.001z"></path>
<path d="M17.467 6.621c-0.018 0.32-0.059 0.617-0.121 0.907l0.007-0.038c-0.012 0.058-0.063 0.1-0.124 0.1-0.008 0-0.016-0.001-0.024-0.002l0.001 0c-0.058-0.013-0.1-0.063-0.1-0.124 0-0.008 0.001-0.016 0.002-0.024l-0 0.001c0.052-0.241 0.089-0.526 0.104-0.817l0.001-0.014c0.003-0.067 0.059-0.121 0.127-0.121 0.070 0 0.127 0.057 0.127 0.127 0 0.002-0 0.004-0 0.006v-0z"></path>
<path d="M17.125 8.333c-0.091 0.276-0.195 0.546-0.31 0.812-0.017 0.044-0.058 0.074-0.107 0.074-0.018 0-0.036-0.004-0.051-0.012l0.001 0c-0.043-0.019-0.073-0.062-0.073-0.111 0-0.017 0.003-0.032 0.009-0.047l-0 0.001c0.094-0.207 0.195-0.472 0.282-0.743l0.016-0.056c0.007-0.062 0.059-0.11 0.122-0.11 0.068 0 0.123 0.055 0.123 0.123 0 0.023-0.006 0.045-0.018 0.064l0-0.001z"></path>
<path d="M16.447 9.921l-0.422 0.756c-0.020 0.035-0.058 0.059-0.101 0.059-0.064 0-0.116-0.052-0.116-0.116 0-0.021 0.006-0.041 0.015-0.058l-0 0.001v-0.007l0.415-0.739c0.020-0.037 0.059-0.062 0.104-0.062 0.065 0 0.118 0.053 0.118 0.118 0 0.022-0.006 0.042-0.016 0.059l0-0.001z"></path>
<path d="M15.559 11.405l-0.502 0.703c-0.020 0.019-0.048 0.031-0.079 0.031-0.063 0-0.114-0.051-0.114-0.114 0-0.017 0.004-0.033 0.011-0.048l-0 0.001 0.492-0.695c0.021-0.025 0.052-0.040 0.087-0.040 0.063 0 0.114 0.051 0.114 0.114 0 0.021-0.006 0.041-0.015 0.057l0-0.001z"></path>
<path d="M14.719 12.771c0.019 0.118 0.082 0.219 0.172 0.286l0.001 0.001c0.048 0.033 0.104 0.060 0.164 0.078l0.004 0.001 0.197 0.072c0.045 0.014 0.076 0.055 0.076 0.103 0 0.059-0.048 0.108-0.108 0.108-0.015 0-0.030-0.003-0.043-0.009l0.001 0-0.205-0.074c-0.083-0.025-0.155-0.060-0.221-0.105l0.003 0.002c-0.138-0.101-0.234-0.25-0.263-0.423l-0.001-0.004c-0.007-0.015-0.012-0.032-0.012-0.050 0-0.063 0.051-0.114 0.114-0.114s0.114 0.051 0.114 0.114c0 0.006-0 0.011-0.001 0.017l0-0.001z"></path>
<path d="M16.072 13.483c0.315 0.115 0.579 0.234 0.832 0.371l-0.032-0.016c0.036 0.017 0.060 0.052 0.060 0.094 0 0.057-0.046 0.103-0.103 0.103-0.020 0-0.039-0.006-0.055-0.016l0 0c-0.214-0.118-0.468-0.233-0.731-0.33l-0.039-0.013c-0.040-0.016-0.067-0.054-0.067-0.098 0-0.058 0.047-0.105 0.105-0.105 0.012 0 0.024 0.002 0.035 0.006l-0.001-0z"></path>
<path d="M17.594 14.336c0.222 0.192 0.417 0.405 0.586 0.637l0.008 0.011c0.012 0.016 0.019 0.036 0.019 0.058 0 0.033-0.016 0.061-0.041 0.079l-0 0c-0.016 0.012-0.036 0.019-0.058 0.019-0.032 0-0.061-0.016-0.079-0.040l-0-0c-0.17-0.229-0.358-0.429-0.566-0.607l-0.005-0.004c-0.022-0.019-0.035-0.046-0.035-0.077 0-0.056 0.045-0.101 0.101-0.101 0.025 0 0.048 0.009 0.065 0.024l-0-0z"></path>
<path d="M18.624 15.746c0.105 0.229 0.203 0.504 0.277 0.787l0.008 0.037c0.001 0.005 0.002 0.011 0.002 0.018 0 0.052-0.042 0.094-0.094 0.094-0.041 0-0.076-0.026-0.089-0.063l-0-0.001c-0.081-0.31-0.177-0.576-0.293-0.831l0.013 0.032c-0.008-0.014-0.013-0.031-0.013-0.048 0-0.054 0.043-0.097 0.097-0.097 0.042 0 0.078 0.027 0.092 0.065l0 0.001z"></path>
<path d="M19.073 17.424l0.045 0.431c0.006 0.072 0.017 0.139 0.034 0.203l-0.002-0.008c0.019 0.070 0.043 0.131 0.072 0.188l-0.003-0.005c0.006 0.012 0.010 0.026 0.010 0.041 0 0.049-0.040 0.089-0.089 0.089-0.034 0-0.064-0.020-0.079-0.048l-0-0c-0.033-0.062-0.061-0.134-0.082-0.209l-0.002-0.008c-0.019-0.066-0.032-0.144-0.039-0.224l-0-0.004-0.046-0.422c0-0 0-0.001 0-0.001 0-0.051 0.041-0.092 0.092-0.092 0.044 0 0.081 0.031 0.090 0.072l0 0.001z"></path>
<path d="M19.821 18.764c0.24 0.178 0.44 0.394 0.596 0.641l0.006 0.010c0.008 0.013 0.013 0.029 0.013 0.046 0 0.047-0.038 0.085-0.085 0.085-0.030 0-0.057-0.016-0.072-0.039l-0-0c-0.15-0.237-0.336-0.436-0.553-0.595l-0.006-0.004c-0.022-0.016-0.036-0.042-0.036-0.072 0-0.019 0.006-0.036 0.016-0.051l-0 0c0.016-0.022 0.042-0.037 0.072-0.037 0.019 0 0.037 0.006 0.051 0.016l-0-0z"></path>
<path d="M20.795 20.205c0.082 0.238 0.154 0.522 0.201 0.815l0.004 0.030c0.001 0.006 0.002 0.012 0.002 0.019 0 0.044-0.036 0.081-0.081 0.081-0.042 0-0.076-0.032-0.080-0.073l-0-0c-0.052-0.313-0.123-0.589-0.215-0.855l0.011 0.036c-0.006-0.012-0.010-0.025-0.010-0.040 0-0.047 0.038-0.084 0.084-0.084 0.041 0 0.076 0.030 0.083 0.069l0 0.001z"></path>
<path d="M21.084 21.917c0.003 0.086 0.005 0.188 0.005 0.289 0 0.203-0.007 0.404-0.021 0.603l0.002-0.027c-0.006 0.037-0.037 0.065-0.076 0.065-0.042 0-0.076-0.034-0.076-0.075v-0c0.010-0.157 0.016-0.34 0.016-0.525 0-0.114-0.002-0.228-0.007-0.341l0 0.016c-0.001-0.004-0.001-0.008-0.001-0.012 0-0.044 0.035-0.079 0.079-0.079s0.079 0.035 0.079 0.079c0 0.002-0 0.005-0 0.007l0-0z"></path>
<path d="M20.971 23.64l-0.173 0.847c-0.010 0.029-0.037 0.050-0.069 0.050-0.040 0-0.072-0.032-0.072-0.072 0-0.002 0-0.005 0-0.007l-0 0v-0.006l0.165-0.836v-0.006c0.008-0.034 0.038-0.059 0.074-0.059 0.005 0 0.010 0 0.014 0.001l-0-0c0.034 0.007 0.060 0.037 0.060 0.073 0 0.005-0 0.010-0.001 0.015l0-0z"></path>
<path d="M20.556 25.316l-0.308 0.806c-0.010 0.026-0.035 0.044-0.063 0.044-0.037 0-0.068-0.030-0.068-0.068 0-0.009 0.002-0.017 0.005-0.024l-0 0 0.302-0.799c0.010-0.027 0.035-0.045 0.065-0.045 0.038 0 0.070 0.031 0.070 0.070 0 0.009-0.002 0.017-0.005 0.025l0-0z"></path>
<path d="M19.875 26.901l-0.436 0.744c-0.011 0.019-0.031 0.032-0.055 0.032-0.012 0-0.023-0.003-0.033-0.009l0 0c-0.018-0.011-0.030-0.031-0.030-0.053 0-0.012 0.003-0.022 0.009-0.032l-0 0 0.427-0.737c0.011-0.020 0.032-0.033 0.056-0.033 0.012 0 0.023 0.003 0.033 0.009l-0-0c0.019 0.012 0.032 0.032 0.032 0.056 0 0.012-0.003 0.024-0.009 0.033l0-0z"></path>
<path d="M18.94 28.35q-0.264 0.342-0.558 0.658c-0.010 0.009-0.024 0.014-0.038 0.014-0.033 0-0.059-0.027-0.059-0.059 0-0.013 0.004-0.025 0.011-0.034l-0 0q0.289-0.313 0.548-0.653c0.011-0.014 0.028-0.022 0.047-0.022 0.014 0 0.027 0.005 0.037 0.012l-0-0c0.014 0.011 0.023 0.028 0.023 0.047 0 0.014-0.005 0.027-0.013 0.037l0-0z"></path>
<path d="M17.765 29.611q-0.322 0.288-0.67 0.543c-0.010 0.010-0.024 0.016-0.039 0.016-0.030 0-0.055-0.025-0.055-0.055 0-0.021 0.012-0.039 0.029-0.048l0-0q0.342-0.253 0.66-0.54c0.010-0.009 0.023-0.014 0.038-0.014 0.031 0 0.057 0.025 0.057 0.057 0 0.017-0.007 0.032-0.019 0.042l-0 0z"></path>
<path d="M16.376 30.631c-0.247 0.147-0.501 0.283-0.759 0.407-0.005 0.002-0.012 0.003-0.018 0.003-0.027 0-0.049-0.022-0.049-0.049 0-0.018 0.010-0.035 0.025-0.043l0-0q0.386-0.185 0.75-0.406c0.008-0.005 0.017-0.007 0.027-0.007 0.019 0 0.036 0.010 0.045 0.025l0 0c0.005 0.008 0.007 0.017 0.007 0.026 0 0.019-0.010 0.035-0.025 0.044l-0 0z"></path>
<path d="M14.82 31.371l-0.821 0.26c-0.002 0-0.005 0.001-0.008 0.001-0.025 0-0.045-0.020-0.045-0.045 0-0.017 0.010-0.032 0.024-0.040l0-0 0.813-0.262c0.004-0.001 0.009-0.002 0.015-0.002 0.021 0 0.039 0.014 0.046 0.033l0 0c0.002 0.004 0.002 0.009 0.002 0.015 0 0.021-0.014 0.039-0.033 0.045l-0 0z"></path>
<path d="M13.158 31.819l-0.853 0.12c-0.005 0.002-0.010 0.003-0.016 0.003-0.023 0-0.042-0.019-0.042-0.042s0.019-0.042 0.042-0.042c0.002 0 0.003 0 0.005 0l-0-0 0.844-0.123c0.002-0 0.004-0 0.006-0 0.024 0 0.043 0.019 0.043 0.043 0 0.021-0.016 0.039-0.036 0.042l-0 0z"></path>
<path d="M11.447 31.995h-0.86c-0.018-0.002-0.033-0.018-0.033-0.036s0.014-0.034 0.033-0.036h0.861c0.021 0 0.039 0.017 0.039 0.039s-0.017 0.039-0.039 0.039v0z"></path>
<path d="M9.729 31.933l-0.854-0.107c-0.016-0.002-0.028-0.016-0.028-0.032 0-0.018 0.014-0.032 0.032-0.032 0.001 0 0.003 0 0.004 0l-0-0 0.849 0.103c0.016 0.004 0.027 0.017 0.027 0.034 0 0.019-0.015 0.035-0.035 0.035-0 0-0 0-0 0h0z"></path>
<path d="M8.029 31.674l-0.836-0.192c-0.012-0.003-0.021-0.015-0.021-0.028 0-0.002 0-0.005 0.001-0.007l-0 0c0.003-0.012 0.014-0.021 0.027-0.021 0.002 0 0.004 0 0.006 0.001l-0-0 0.836 0.193c0.015 0.002 0.027 0.014 0.027 0.030 0 0.017-0.013 0.030-0.030 0.030-0.003 0-0.007-0.001-0.010-0.002l0 0z"></path>
<path d="M6.366 31.283c-0.286-0.008-0.571-0.027-0.858-0.064-0.012-0.002-0.021-0.012-0.021-0.024 0-0.001 0-0.002 0-0.002v0c0.002-0.012 0.013-0.021 0.025-0.021 0 0 0.001 0 0.001 0h-0c0.249 0.032 0.545 0.054 0.845 0.060l0.009 0c0.001-0 0.002-0 0.003-0 0.014 0 0.025 0.011 0.025 0.025s-0.011 0.025-0.025 0.025c-0.001 0-0.002-0-0.003-0h0z"></path>
<path d="M4.662 31.059c-0.318-0.081-0.59-0.175-0.85-0.289l0.036 0.014c-0.007-0.003-0.011-0.009-0.011-0.017 0-0.010 0.008-0.019 0.019-0.019 0.003 0 0.005 0.001 0.007 0.002l-0-0c0.224 0.097 0.494 0.189 0.773 0.259l0.038 0.008c0.010 0.003 0.016 0.012 0.016 0.022 0 0.002-0 0.003-0 0.004l0-0c-0.003 0.009-0.011 0.015-0.021 0.015-0.002 0-0.004-0-0.006-0.001l0 0z"></path>
<path d="M3.090 30.374c-0.248-0.166-0.464-0.347-0.66-0.547l-0.001-0.001c-0.003-0.003-0.004-0.006-0.004-0.010s0.002-0.008 0.004-0.010v0c0.002-0.003 0.006-0.005 0.010-0.005s0.007 0.002 0.010 0.005l0 0c0.196 0.2 0.411 0.378 0.644 0.534l0.015 0.009c0.003 0.003 0.004 0.007 0.004 0.011s-0.002 0.008-0.004 0.011l0-0c-0.003 0.003-0.007 0.005-0.011 0.005s-0.008-0.002-0.011-0.005v0z"></path>
<path d="M1.903 29.145c-0.139-0.221-0.264-0.477-0.364-0.745l-0.010-0.029c-0.002-0.002-0.003-0.004-0.003-0.006 0-0.005 0.004-0.009 0.009-0.009 0.002 0 0.005 0.001 0.006 0.003v0c0.11 0.295 0.237 0.548 0.386 0.785l-0.010-0.018c0.003 0.002 0.004 0.005 0.004 0.009 0 0.007-0.005 0.012-0.012 0.012-0.003 0-0.006-0.001-0.009-0.004v0z"></path>
<path d="M1.307 27.541c-0.046-0.252-0.077-0.546-0.084-0.846l-0-0.007c-0-0-0-0.001-0-0.002 0-0.003 0.003-0.006 0.006-0.006s0.006 0.003 0.006 0.006c0 0.001-0 0.001-0 0.002v-0c0.010 0.308 0.042 0.601 0.096 0.887l-0.006-0.036s0 0.008-0.007 0.009c-0 0-0 0-0 0-0.004 0-0.008-0.003-0.009-0.007l-0-0z"></path>
<path d="M1.25 25.831v0z"></path>
<path d="M1.96 26.475l-0.722-0.458-0.83 0.202 1.079-1.711z"></path>
<path d="M18.9 20.983l-0.114-2.283-1.555 1.68 0.925-0.050c-0.121 0.235-0.234 0.428-0.358 0.615l0.015-0.024c-0.195 0.296-0.396 0.553-0.614 0.794l0.005-0.005c-0.442 0.481-0.961 0.883-1.538 1.189l-0.031 0.015c-0.54 0.287-1.166 0.51-1.826 0.636l-0.042 0.007c-0.544 0.108-1.17 0.17-1.81 0.17-0.058 0-0.116-0-0.174-0.002l0.009 0c-1.169-0.027-2.289-0.179-3.365-0.444l0.106 0.022c0.34-0.621 0.54-1.36 0.54-2.146 0-1.197-0.464-2.285-1.221-3.095l0.002 0.003q0.152-0.385 0.304-0.774 0.832-2.14 1.585-4.313c0.010-0.027 0.019-0.057 0.030-0.084h0.011l0.404-0.114c0.137-0.034 0.275-0.059 0.413-0.090 0.068-0.014 0.137-0.030 0.207-0.042l0.211-0.026c0.14-0.016 0.28-0.038 0.422-0.050l0.422-0.017c0.071 0 0.142-0.009 0.211-0.007l0.211 0.008h0.107l-0.488 0.783 2.22-0.556-1.952-1.211 0.228 0.913-0.122-0.009-0.213-0.015h-0.641c-0.143 0.007-0.286 0.024-0.427 0.035l-0.215 0.019-0.211 0.037c-0.14 0.026-0.282 0.047-0.422 0.078l-0.328 0.084c0.47-1.363 0.913-2.742 1.296-4.129 0.211-0.736 0.388-1.484 0.561-2.229l0.22-1.127 0.114-0.841 0.868 0.405-0.814-2.138-0.964 2.083 0.865-0.331-0.131 0.819-0.248 1.12c-0.191 0.739-0.385 1.476-0.613 2.205-0.44 1.437-0.934 2.854-1.462 4.265l-0.184 0.065c-1.127 0.422-2.088 1.054-2.879 1.855l-0.001 0.001c-0.075 0.075-0.148 0.153-0.221 0.228q0.241-1.099 0.375-2.216c0.074-0.517 0.099-1.038 0.142-1.557l0.021-0.781c0-0.13 0.008-0.26 0.007-0.391l-0.015-0.392c-0.010-0.26-0.013-0.519-0.027-0.78l-0.071-0.776c-0.013-0.129-0.021-0.259-0.038-0.388l-0.060-0.38-0.069-0.453 0.983 0.194-1.386-1.995-0.464 2.387 0.799-0.561 0.052 0.437 0.047 0.385c0.013 0.129 0.015 0.258 0.024 0.387l0.042 0.774v1.161c0 0.129-0.015 0.258-0.021 0.386l-0.048 0.773c-0.060 0.511-0.103 1.027-0.195 1.533-0.177 1.124-0.401 2.096-0.685 3.042l0.042-0.161c-0.246 0.304-0.493 0.646-0.723 1l-0.029 0.048c-0.13-0.011-0.261-0.018-0.395-0.018-2.504 0-4.533 2.029-4.533 4.533s2.030 4.533 4.533 4.533v0c0.088 0 0.176 0 0.262-0.008 0.089 0.114 0.176 0.228 0.259 0.342 0.191 0.259 0.38 0.554 0.55 0.862l0.021 0.041c0.152 0.269 0.301 0.588 0.427 0.92l0.017 0.051c0.206 0.527 0.355 1.139 0.419 1.775l0.002 0.030-0.752-0.342 0.741 1.905 0.847-1.861-0.789 0.309c-0.045-0.675-0.177-1.305-0.386-1.898l0.015 0.050c-0.134-0.393-0.276-0.722-0.441-1.038l0.019 0.041c-0.183-0.364-0.365-0.67-0.566-0.962l0.018 0.027c-0.060-0.090-0.123-0.179-0.186-0.267 1.396-0.149 2.587-0.913 3.314-2.011l0.011-0.017c1.015 0.229 2.18 0.36 3.376 0.36 0.029 0 0.058-0 0.087-0l-0.004 0c0.72-0.009 1.415-0.091 2.085-0.241l-0.067 0.013c0.717-0.158 1.351-0.404 1.933-0.732l-0.035 0.018c0.609-0.343 1.128-0.768 1.563-1.268l0.006-0.007c0.358-0.416 0.669-0.89 0.914-1.401l0.017-0.038zM6.644 14.924c0.38-0.4 0.794-0.761 1.239-1.079l0.026-0.018c0.426-0.308 0.912-0.576 1.43-0.783l0.046-0.016 0.055-0.021q-0.785 2.081-1.645 4.135-0.127 0.307-0.259 0.613c-0.495-0.44-1.095-0.775-1.756-0.962l-0.032-0.008c0.021-0.070 0.042-0.138 0.064-0.208 0.070-0.253 0.143-0.504 0.208-0.756 0.021-0.080 0.042-0.161 0.062-0.241 0.178-0.226 0.364-0.445 0.561-0.656zM5.361 16.611c-0.009 0.026-0.019 0.054-0.029 0.081h-0.018c0.016-0.026 0.031-0.057 0.047-0.081z"></path>
<path d="M6.324 3.914c0 0.243-0.197 0.439-0.439 0.439s-0.439-0.197-0.439-0.439c0-0.243 0.197-0.439 0.439-0.439s0.439 0.197 0.439 0.439z"></path>
</svg>
